<?xml version="1.0" encoding="UTF-8"?>
<svg id="_레이어_1" data-name="레이어 1" xmlns="http://www.w3.org/2000/svg" viewBox="0 0 1008.31 757.99">
  <defs>
    <style>
      .cls-1 {
        fill: #231815;
      }

      .cls-2 {
        fill: #8cc63f;
      }

      .cls-3 {
        stroke-linecap: round;
        stroke-linejoin: round;
      }

      .cls-3, .cls-4 {
        fill: none;
        stroke: #000;
        stroke-width: .75px;
      }

      .cls-4 {
        stroke-miterlimit: 10;
      }

      .cls-5 {
        fill: #fff;
      }

      .cls-6 {
        fill: #fffda4;
      }

      .cls-7 {
        fill: #8e64b2;
      }

      .cls-8 {
        fill: #c00;
      }

      .cls-9 {
        fill: #ff7bac;
      }

      .cls-10 {
        fill: #f7931e;
      }

      .cls-11 {
        fill: #98cbea;
      }
    </style>
  </defs>
  <g>
    <g>
      <path class="cls-2" d="M99.57,506.19c.07-.14.42-.38,1.22.53,1.01,1.14,7.79,20.67,9.49,28,0,0,4.49,15.09,3.32,25.66l-9.1-25.64-4.93-14.06-4.93,14.06-9.47,26.68c-1.18-10.57,3.38-26.7,3.38-26.7,1.7-7.33,8.79-26.86,9.8-28,.79-.9,1.14-.67,1.22-.53Z"/>
      <path class="cls-2" d="M176.07,753.15l-21.35,4.39s-8.63-68.05-12.56-77.18c-3.94-9.14-13.32-48.26-11.59-72.16l-16.97-47.82c1.17-10.57-3.32-25.66-3.32-25.66-1.7-7.33-8.48-26.86-9.49-28-.8-.91-1.15-.67-1.22-.53-.08-.14-.43-.37-1.22.53-1.01,1.14-8.1,20.67-9.8,28,0,0-4.56,16.13-3.38,26.7l-16.6,46.78c1.73,23.9-7.65,63.02-11.59,72.16-3.94,9.13-12.57,77.18-12.57,77.18l-21.34-4.39s4.03-85.58,3.22-108.87c-.8-23.29,8.46-48.41,8.46-48.41-1.45-40.37.06-56.39.06-56.39,0,0,2.54-25.01,4.91-32.56,2.57-8.21,11.25-37.17,11.27-37.17,4.22-10.06-3.89-58.4-3.89-58.4l7.43-1.36s23.21,5.37,44.91,7.42h.26c21.69-2.05,44.91-7.42,44.91-7.42l7.43,1.36s-8.11,48.34-3.9,58.4c.03,0,8.71,28.96,11.28,37.17,2.36,7.55,4.91,32.56,4.91,32.56,0,0,1.51,16.02.06,56.39,0,0,9.26,25.12,8.45,48.41-.8,23.29,3.23,108.87,3.23,108.87Z"/>
    </g>
    <g>
      <path class="cls-4" d="M99.44,417.41c-21.7-2.05-44.91-7.42-44.91-7.42l-7.43,1.36s8.11,48.34,3.89,58.4c-.02,0-8.7,28.96-11.27,37.17-2.37,7.55-4.91,32.56-4.91,32.56,0,0-1.51,16.02-.06,56.39,0,0-9.26,25.12-8.46,48.41.81,23.29-3.22,108.87-3.22,108.87l21.34,4.39s8.63-68.05,12.57-77.18c3.94-9.14,13.32-48.26,11.59-72.16l16.6-46.78,9.47-26.68"/>
      <line class="cls-4" x1="94.64" y1="534.74" x2="99.57" y2="520.68"/>
      <path class="cls-4" d="M99.57,506.19c-.08-.14-.43-.37-1.22.53-1.01,1.14-8.1,20.67-9.8,28,0,0-4.56,16.13-3.38,26.7"/>
      <path class="cls-4" d="M99.58,506.26s.01-.03-.01-.06"/>
      <path class="cls-4" d="M99.7,417.41c21.69-2.05,44.91-7.42,44.91-7.42l7.43,1.36s-8.11,48.34-3.9,58.4c.03,0,8.71,28.96,11.28,37.17,2.36,7.55,4.91,32.56,4.91,32.56,0,0,1.51,16.02.06,56.39,0,0,9.26,25.12,8.45,48.41-.8,23.29,3.23,108.87,3.23,108.87l-21.35,4.39s-8.63-68.05-12.56-77.18c-3.94-9.14-13.32-48.26-11.59-72.16l-16.97-47.82-9.1-25.64"/>
      <line class="cls-4" x1="104.5" y1="534.74" x2="99.57" y2="520.68"/>
      <path class="cls-4" d="M99.56,506.26s0-.02.01-.06h0c.07-.15.42-.39,1.22.52,1.01,1.14,7.79,20.67,9.49,28,0,0,4.49,15.09,3.32,25.66"/>
    </g>
  </g>
  <g>
    <g>
      <g>
        <path class="cls-2" d="M351.3,417.41l.13,103.27-4.93,14.06-26.07,73.46c1.73,23.9-7.65,63.02-11.59,72.16-3.94,9.13-12.57,77.18-12.57,77.18l-21.34-4.39s4.03-85.58,3.23-108.87c-.81-23.29,8.45-48.41,8.45-48.41-1.45-40.37.06-56.39.06-56.39,0,0,2.55-25.01,4.91-32.56,2.57-8.21,11.25-37.17,11.27-37.17,4.22-10.06-3.89-58.4-3.89-58.4l7.43-1.36s23.21,5.37,44.91,7.42Z"/>
        <path class="cls-2" d="M427.93,753.15l-21.34,4.39s-8.64-68.05-12.57-77.18c-3.94-9.14-13.32-48.26-11.59-72.16l-26.07-73.46-4.93-14.06-.13-103.27h.26c21.7-2.05,44.91-7.42,44.91-7.42l7.43,1.36s-8.11,48.34-3.89,58.4c.02,0,8.7,28.96,11.27,37.17,2.36,7.55,4.91,32.56,4.91,32.56,0,0,1.51,16.02.06,56.39,0,0,9.26,25.12,8.45,48.41-.8,23.29,3.23,108.87,3.23,108.87Z"/>
      </g>
      <g>
        <path class="cls-4" d="M346.5,534.74l-26.07,73.46c1.73,23.9-7.65,63.02-11.59,72.16-3.94,9.13-12.57,77.18-12.57,77.18l-21.34-4.39s4.03-85.58,3.23-108.87c-.81-23.29,8.45-48.41,8.45-48.41-1.45-40.37.06-56.39.06-56.39,0,0,2.55-25.01,4.91-32.56,2.57-8.21,11.25-37.17,11.27-37.17,4.22-10.06-3.89-58.4-3.89-58.4l7.43-1.36s23.21,5.37,44.91,7.42l.13,103.27-4.93,14.06"/>
        <path class="cls-4" d="M351.56,417.41c21.7-2.05,44.91-7.42,44.91-7.42l7.43,1.36s-8.11,48.34-3.89,58.4c.02,0,8.7,28.96,11.27,37.17,2.36,7.55,4.91,32.56,4.91,32.56,0,0,1.51,16.02.06,56.39,0,0,9.26,25.12,8.45,48.41-.8,23.29,3.23,108.87,3.23,108.87l-21.34,4.39s-8.64-68.05-12.57-77.18c-3.94-9.14-13.32-48.26-11.59-72.16l-26.07-73.46"/>
        <line class="cls-4" x1="356.36" y1="534.74" x2="351.43" y2="520.68"/>
      </g>
    </g>
    <line class="cls-4" x1="99.7" y1="417.41" x2="99.7" y2="506.25"/>
  </g>
  <g>
    <g>
      <path class="cls-2" d="M704.28,521.89l-3.76,14.04-4.09,15.1c2.59-14.67,4.21-30.32,5.97-32.46.71-.87,1.73-.92,1.87-.92h.01c.07,0,1.91.1,2.8,2.23,1.06,2.54,2.15,15.35,4.72,29.99l-3.77-13.94-3.75-14.04Z"/>
      <path class="cls-2" d="M704.27,415.97v101.68h0c-.14,0-1.16.05-1.87.92-1.76,2.14-3.38,17.79-5.97,32.46h0s-15.8,58.36-15.8,58.36c1.32,23.9-5.84,63.03-8.84,72.16-3.01,9.13-8.26,63.91-8.26,63.91l-17.26-1.33s2.72-75.37,2.11-98.66c-.62-23.29,6.45-48.41,6.45-48.41-1.11-40.36.04-56.39.04-56.39,0,0-.73-25.67-.49-33.43.66-20.56,6.29-36.91,14.68-53.99,5.63-27.56-9.3-43.04-9.3-43.04l9.74-.74s18.22,4.45,34.77,6.5Z"/>
      <path class="cls-2" d="M762.27,744.13l-17.26,1.33s-5.25-54.78-8.25-63.91c-3.01-9.13-10.17-48.26-8.84-72.16l-16.12-59.52c-2.57-14.64-3.66-27.45-4.72-29.99-.89-2.13-2.73-2.23-2.8-2.23v-101.68c16.55-2.05,34.76-6.5,34.76-6.5l9.74.74s-14.92,15.48-9.29,43.04c8.38,17.08,14.01,33.43,14.67,53.99.25,7.76-.49,33.43-.49,33.43,0,0,1.15,16.03.05,56.39,0,0,7.06,25.12,6.45,48.41-.62,23.29,2.1,98.66,2.1,98.66Z"/>
    </g>
    <g>
      <path class="cls-4" d="M704.27,517.65c-.14,0-1.16.05-1.87.92-1.76,2.14-3.38,17.79-5.97,32.46"/>
      <path class="cls-4" d="M700.52,535.93l-4.09,15.1h0s-15.8,58.36-15.8,58.36c1.32,23.9-5.84,63.03-8.84,72.16-3.01,9.13-8.26,63.91-8.26,63.91l-17.26-1.33s2.72-75.37,2.11-98.66c-.62-23.29,6.45-48.41,6.45-48.41-1.11-40.36.04-56.39.04-56.39,0,0-.73-25.67-.49-33.43.66-20.56,6.29-36.91,14.68-53.99,5.63-27.56-9.3-43.04-9.3-43.04l9.74-.74s18.22,4.45,34.77,6.5v101.68"/>
      <polyline class="cls-4" points="700.52 535.93 704.28 521.89 704.28 521.87"/>
      <path class="cls-4" d="M704.27,415.97c16.56-2.05,34.77-6.5,34.77-6.5l9.74.74s-14.92,15.48-9.29,43.04c8.38,17.08,14.01,33.43,14.67,53.99.25,7.76-.49,33.43-.49,33.43,0,0,1.15,16.03.05,56.39,0,0,7.06,25.12,6.45,48.41-.62,23.29,2.1,98.66,2.1,98.66l-17.26,1.33s-5.25-54.78-8.25-63.91c-3.01-9.13-10.17-48.26-8.84-72.16l-16.12-59.52-3.77-13.94"/>
      <polyline class="cls-4" points="708.03 535.93 704.28 521.89 704.27 521.87"/>
      <path class="cls-4" d="M704.27,517.65h.01c.07,0,1.91.1,2.8,2.23,1.06,2.54,2.15,15.35,4.72,29.99.01.03.01.06.02.09"/>
    </g>
  </g>
  <g>
    <path class="cls-1" d="M376.86,42.39c-2.65,2.26-5.94,3.39-9.85,3.39-2.04,0-4.04-.26-6-.78-1-.3-1.85-.55-2.54-.75-.7-.2-1.28-.36-1.76-.49-.44.04-.73.21-.88.49-.15.28-.23.51-.23.69h-.78l-1.11-9.85.65-.39c.48,1.09,1.1,2.12,1.86,3.1.76.98,1.66,1.84,2.71,2.58,1.04.74,2.19,1.33,3.46,1.76,1.26.44,2.65.65,4.17.65,1.26,0,2.42-.2,3.49-.59,1.06-.39,1.99-.95,2.77-1.66.78-.72,1.4-1.55,1.86-2.51.46-.96.69-2,.69-3.13,0-2.48-.89-4.48-2.67-6-.87-.74-1.86-1.49-2.97-2.25-1.11-.76-2.36-1.51-3.75-2.25-1.61-.87-3.08-1.75-4.4-2.64-1.33-.89-2.53-1.84-3.62-2.84-2.17-2.04-3.26-4.72-3.26-8.02,0-2.96,1.22-5.52,3.65-7.7,2.39-2.13,5.35-3.2,8.87-3.2,1.87,0,3.65.28,5.35.85.87.26,1.63.49,2.28.68.65.2,1.19.34,1.63.42.48-.04.79-.21.95-.49.15-.28.25-.53.29-.75h.72l.85,9.85-.98.07c-.7-2.09-1.95-3.84-3.75-5.25-1.81-1.41-4.23-2.12-7.27-2.12-2.22,0-4.03.65-5.45,1.96-1.41,1.3-2.12,2.96-2.12,4.96s1.07,3.81,3.2,5.54c2.09,1.61,4.57,3.2,7.43,4.76l-.46-.2c1.78.91,3.36,1.85,4.73,2.8,1.37.96,2.53,1.99,3.49,3.1.96,1.11,1.67,2.3,2.15,3.59.48,1.28.72,2.71.72,4.27,0,3.3-1.37,6.09-4.11,8.35Z"/>
    <path class="cls-1" d="M384.09,45v-.65h.91c.87,0,1.44-.23,1.73-.68.28-.46.42-1.29.42-2.51V4.7c0-1.22-.14-2.05-.42-2.51-.28-.46-.86-.69-1.73-.69h-.91v-.65h29.09l.07,6.72h-.91c-.26-1.74-.83-2.78-1.7-3.13-.78-.3-1.89-.46-3.33-.46h-13.17c-.78,0-1.22.09-1.3.26-.09.17-.13.59-.13,1.24v14.93h13.24c1.7,0,2.79-.22,3.29-.65.5-.43.82-1.3.95-2.61h.85v9.85h-.85c-.09-.65-.2-1.2-.33-1.63-.13-.43-.34-.78-.62-1.04-.28-.26-.7-.45-1.24-.55-.54-.11-1.23-.16-2.05-.16h-13.24v17.02c0,.61.22.97.65,1.08.43.11,1.28.16,2.54.16h10.76c1.04,0,1.95-.05,2.71-.16.76-.11,1.45-.34,2.06-.68.61-.35,1.15-.82,1.63-1.4.48-.59.93-1.38,1.37-2.38h1.04l-1.63,7.76h-29.74Z"/>
    <path class="cls-1" d="M463.53,45h-11.09v-.65c1.04,0,1.78-.17,2.22-.52.17-.17.26-.43.26-.78.09-.39,0-.87-.26-1.44l-4.04-9.91h-19.63l-3.65,9.13c-.35.91-.52,1.59-.52,2.02,0,.39.09.67.26.85.43.44,1.17.65,2.22.65v.65h-9.78v-.65c.96-.09,1.78-.48,2.48-1.17.7-.7,1.28-1.59,1.76-2.67L440.44.39h2.94l17.35,41.8c.52.91.99,1.48,1.4,1.7.41.22.88.37,1.4.46v.65ZM440.9,7.24l-8.61,21.26h17.22l-8.61-21.26Z"/>
    <path class="cls-1" d="M492.68,6.72c0-1.96-.15-3.32-.46-4.08-.3-.76-.96-1.14-1.96-1.14h-.98v-.65h10.37v.65h-.98c-1,0-1.65.38-1.96,1.14-.3.76-.46,2.12-.46,4.08v22.83c0,5.22-1.43,9.23-4.3,12.03-2.87,2.8-6.94,4.21-12.2,4.21s-9.33-1.41-12.2-4.24c-2.87-2.83-4.3-6.87-4.3-12.13V4.7c0-1.22-.15-2.05-.46-2.51-.3-.46-.94-.69-1.89-.69h-.98v-.65h12.13v.65h-.91c-1,0-1.64.23-1.92.69-.28.46-.42,1.29-.42,2.51v24.85c0,8.65,3.93,12.98,11.8,12.98,3.78,0,6.74-1.08,8.87-3.23,2.13-2.15,3.2-5.14,3.2-8.97V6.72Z"/>
    <path class="cls-1" d="M512.77,41.15c0,1.22.14,2.05.42,2.51.28.46.92.68,1.92.68h.91v.65h-11.87v-.65h.91c.87,0,1.45-.23,1.73-.68.28-.46.42-1.29.42-2.51V4.7c0-1.22-.14-2.05-.42-2.51-.28-.46-.86-.69-1.73-.69h-.91v-.65h15.59c4.61,0,8.2.99,10.76,2.97,2.56,1.98,3.85,4.88,3.85,8.71,0,2.74-.92,5.07-2.77,6.98-1.85,1.91-4.66,3.13-8.45,3.65,1.26,1.13,2.38,2.18,3.36,3.13.98.96,1.77,1.81,2.38,2.54.61.74,1.28,1.59,2.02,2.54.74.96,1.54,2,2.41,3.13.74.96,1.38,2.01,1.92,3.16.54,1.15,1.08,2.22,1.6,3.2.52.98,1.1,1.8,1.73,2.48.63.67,1.38,1.01,2.25,1.01v.65h-7.96c-.48-.96-.89-1.79-1.24-2.51-.35-.72-.75-1.49-1.21-2.32-.46-.83-.88-1.57-1.27-2.22-1.04-1.65-2.15-3.22-3.33-4.7-1.17-1.48-2.09-2.61-2.74-3.39-1.26-1.52-3.35-3.37-6.26-5.54l-4.04.07v16.76ZM515.9,21.26c3.96,0,7.07-.78,9.33-2.35,2.26-1.57,3.39-3.91,3.39-7.04,0-2.74-.91-4.75-2.74-6.03-1.83-1.28-4.52-1.92-8.09-1.92-1.39,0-2.47.05-3.23.16-.76.11-1.36.42-1.79.95v16.24h3.13Z"/>
    <path class="cls-1" d="M549.36,37.24c3.04,3.52,7.26,5.28,12.65,5.28,2.35,0,4.65-.37,6.91-1.11,2.26-.74,4.2-1.83,5.8-3.26l.91,2.41c-2.09,1.83-4.35,3.15-6.78,3.98-2.44.83-5.09,1.24-7.96,1.24-6.74,0-12.11-2.06-16.11-6.2-4-4.13-6-9.67-6-16.63s2.06-12.15,6.2-16.5c4.17-4.3,9.48-6.46,15.91-6.46,2.43,0,4.74.26,6.91.78,1.09.22,2,.42,2.74.62.74.19,1.33.36,1.76.49.35,0,.67-.21.98-.62.3-.41.5-.82.59-1.21h.72l.39,8.87.07,1.89-.72.2c-.7-1.52-1.5-2.76-2.41-3.72-.91-.96-1.96-1.74-3.13-2.35-1.13-.56-2.29-1-3.49-1.3-1.2-.3-2.4-.46-3.62-.46-5.22,0-9.35,1.78-12.39,5.35-3,3.61-4.5,8.39-4.5,14.35s1.52,10.87,4.57,14.35Z"/>
    <path class="cls-1" d="M583.89,2.18c-.28-.46-.92-.69-1.92-.69h-.91v-.65h11.94v.65h-.91c-.91,0-1.51.23-1.79.69-.28.46-.42,1.29-.42,2.51v16.04h21.33V4.7c0-1.22-.14-2.05-.42-2.51-.28-.46-.92-.69-1.92-.69h-.91v-.65h12v.65h-.91c-.96,0-1.58.23-1.86.69-.28.46-.42,1.29-.42,2.51v36.46c0,1.22.14,2.05.42,2.51.28.46.9.68,1.86.68h.91v.65h-12v-.65h.91c1,0,1.64-.23,1.92-.68.28-.46.42-1.29.42-2.51v-17.09h-21.33v17.09c0,1.22.14,2.05.42,2.51.28.46.88.68,1.79.68h.91v.65h-11.94v-.65h.91c1,0,1.64-.23,1.92-.68.28-.46.42-1.29.42-2.51V4.7c0-1.22-.14-2.05-.42-2.51Z"/>
    <path class="cls-1" d="M633.91,43.66c.28.46.97.68,2.05.68h1.04v.65h-12.65v-.65h1.04c1.09,0,1.77-.23,2.05-.68.28-.46.42-1.29.42-2.51V4.7c0-1.22-.14-2.05-.42-2.51-.28-.46-.97-.69-2.05-.69h-1.04v-.65h12.65v.65h-1.04c-1.09,0-1.77.23-2.05.69-.28.46-.42,1.29-.42,2.51v36.46c0,1.22.14,2.05.42,2.51Z"/>
    <path class="cls-1" d="M675.55,6.33c0-1.83-.14-3.09-.42-3.78-.28-.69-.95-1.04-1.99-1.04h-1.11v-.65h10.57v.65h-1.04c-1,0-1.65.35-1.96,1.04-.3.7-.46,1.96-.46,3.78v39h-3.33l-26.15-37.44v31.76c0,1.74.15,2.96.46,3.65.3.7.96,1.04,1.96,1.04h.98v.65h-10.5v-.65h1.04c1.04,0,1.72-.35,2.02-1.04.3-.7.46-1.91.46-3.65V4.24l-1.11-2.02c-.22-.35-.45-.55-.68-.62-.24-.07-.56-.1-.95-.1h-.78v-.65h8.61c4.09,6.13,8.15,12.07,12.2,17.8,4.04,5.74,8.11,11.67,12.19,17.8V6.33Z"/>
  </g>
  <g>
    <g>
      <path class="cls-6" d="M99.19,175.87v24.9s-.01.29-.01.29c-13.2.01-21.96-3.6-21.96-3.6l-.9-.06c1.95-1.94,5.65-6.09,7.42-11.2l1.7-5.85c-13.91-11.45-13.28-33.89-13.28-33.89,0,0-1.23-16.72,5.78-27.09,2.66-3.92,6.43-6.37,10.08-7.88l2.34,27.81v.11c-4.02.84-7.86,2.65-8,6.52-.29,8.16.52,26.49,16.83,29.94Z"/>
      <path class="cls-6" d="M110.87,111.49l-2.34,27.81v.11c-3.98-.82-8.13-.68-9.08-.64-.93-.04-5.1-.18-9.09.64v-.11l-2.34-27.81c5.28-2.19,10.33-2.45,11.47-2.48,1.3.04,6.23.34,11.38,2.48Z"/>
      <path class="cls-6" d="M99.45,175.93c16.57-3.32,17.38-21.8,17.08-30-.14-3.87-3.98-5.68-8-6.52v-.11l2.34-27.81c3.66,1.51,7.43,3.96,10.08,7.88,7.01,10.37,5.79,27.09,5.79,27.09,0,0,2.03,22.96-11.88,34.4l1.38,5.34c1.24,4.06,4.43,8.38,6.29,10.69l-.86.57c-8.24,2.69-15.91,3.6-22.49,3.6v-25.19c.09.03.18.04.27.06Z"/>
      <polygon class="cls-7" points="109.09 377.22 106.17 395.6 92.29 395.6 89.94 377.22 99.46 377.22 99.57 377.22 109.09 377.22"/>
      <path class="cls-11" d="M149.71,260.01c-2.04,12.7-9.14,55.75-9.33,56.86,0,0-2.79,11.24-1.87,15.34,0,0,.99,16.4,6.64,25.54l-36.06,19.47h-19.15l-36.06-19.47c5.65-9.14,6.64-25.54,6.64-25.54.92-4.1-1.87-15.34-1.87-15.34-.19-1.11-7.29-44.16-9.33-56.86.02-.21.03-.41.04-.62h-.14c-.1-.64-.19-1.18-.26-1.61l.24-.04c5.6-28.5,5.29-55.37,5.39-55.86l-.03-.21,20.51-3.1s.49-.42,1.25-1.17l.9.06s8.76,3.61,21.96,3.6c6.58,0,14.25-.91,22.49-3.6l.86-.57c.85,1.05,1.43,1.68,1.43,1.68l20.53,3.1-.04.25c.1.49-.21,27.37,5.39,55.87l.22.04c-.09.56-.21,1.3-.35,2.18Z"/>
      <path class="cls-9" d="M49.22,259.39c.03.19.06.4.1.62-.32,4.86-1.18,9.68-2.3,14.21-18.02,1.39-30.42-6.66-30.42-6.66l-.62-.09c1.12-7.32,2.49-12.76,3.66-16.57,0,0,7.66,8.81,29.58,8.49Z"/>
      <path class="cls-8" d="M16.6,267.56s12.4,8.05,30.42,6.66c-3.68,14.95-10.23,26.76-10.23,26.76-.99,5.91-1.58,6.49-6.31,20.82-6.54,19.82-15.44,46.64-15.44,46.67-6.51.02-11.56-.28-14.64-4.37l13.37-68.16c.17-11.59,1.07-21,2.21-28.47l.62.09Z"/>
      <path class="cls-8" d="M48.96,257.78c.07.43.16.97.26,1.61-21.92.32-29.58-8.49-29.58-8.49,1.47-4.79,2.64-6.96,2.64-6.96-.82-22.07,6.3-31.89,6.3-31.89,3.66-9.78,17.33-9.07,17.33-9.07l8.65-1.31.03.21c-.1.49.21,27.36-5.39,55.86l-.24.04Z"/>
      <path class="cls-8" d="M150.06,257.83l-.22-.04c-5.6-28.5-5.29-55.38-5.39-55.87l.04-.25,8.63,1.31s13.67-.71,17.33,9.07c0,0,7.12,9.82,6.3,31.89,0,0,7.94,14.78,8.52,52l13.36,68.16c-3.08,4.09-8.13,4.39-14.63,4.37,0,0-8.9-26.84-15.45-46.67-4.73-14.33-5.32-14.91-6.31-20.82,0,0-11.13-20.06-12.53-40.97.14-.88.26-1.62.35-2.18Z"/>
    </g>
    <g>
      <path class="cls-4" d="M83.74,186.2c-1.77,5.11-5.47,9.26-7.42,11.2-.76.75-1.25,1.17-1.25,1.17l-20.51,3.1-8.65,1.31s-13.67-.71-17.33,9.07c0,0-7.12,9.82-6.3,31.89,0,0-1.17,2.17-2.64,6.96-1.17,3.81-2.54,9.25-3.66,16.57-1.14,7.47-2.04,16.88-2.21,28.47L.4,364.1c3.08,4.09,8.13,4.39,14.64,4.37,0-.03,8.9-26.85,15.44-46.67,4.73-14.33,5.32-14.91,6.31-20.82"/>
      <path class="cls-4" d="M36.79,300.98s6.55-11.81,10.23-26.76c1.12-4.53,1.98-9.35,2.3-14.21.02-.21.03-.41.04-.62"/>
      <path class="cls-4" d="M19.64,250.9s7.66,8.81,29.58,8.49h.14"/>
      <path class="cls-4" d="M16.6,267.56s12.4,8.05,30.42,6.66c.16-.01.32-.03.48-.04"/>
      <path class="cls-4" d="M58.65,316.89v-.02s2.79,11.24,1.87,15.34c0,0-.99,16.4-6.64,25.54l36.06,19.47h9.52"/>
      <path class="cls-4" d="M48.77,256.52s.07.48.19,1.26c.07.43.16.97.26,1.61.03.19.06.4.1.62,2.04,12.7,9.14,55.75,9.33,56.86"/>
      <path class="cls-4" d="M116.24,186.2c1.24,4.06,4.43,8.38,6.29,10.69.85,1.05,1.43,1.68,1.43,1.68l20.53,3.1,8.63,1.31s13.67-.71,17.33,9.07c0,0,7.12,9.82,6.3,31.89,0,0,7.94,14.78,8.52,52l13.36,68.16c-3.08,4.09-8.13,4.39-14.63,4.37,0,0-8.9-26.84-15.45-46.67-4.73-14.33-5.32-14.91-6.31-20.82"/>
      <path class="cls-4" d="M162.24,300.98s-11.13-20.06-12.53-40.97c-.02-.21-.03-.41-.04-.62"/>
      <path class="cls-4" d="M140.38,316.87s-2.79,11.24-1.87,15.34c0,0,.99,16.4,6.64,25.54l-36.06,19.47h-9.63"/>
      <path class="cls-4" d="M150.26,256.52s-.07.5-.2,1.31c-.09.56-.21,1.3-.35,2.18-2.04,12.7-9.14,55.75-9.33,56.86v.02"/>
      <path class="cls-4" d="M144.45,201.92c.1.49-.21,27.37,5.39,55.87"/>
      <polyline class="cls-4" points="89.94 377.22 92.29 395.6 106.17 395.6 109.09 377.22"/>
      <path class="cls-4" d="M77.22,197.46s8.76,3.61,21.96,3.6c6.58,0,14.25-.91,22.49-3.6"/>
      <path class="cls-3" d="M54.59,201.88c-.1.49.21,27.36-5.39,55.86"/>
      <path class="cls-3" d="M99.73,109s-.08,0-.24.01c-1.14.03-6.19.29-11.47,2.48-3.65,1.51-7.42,3.96-10.08,7.88-7.01,10.37-5.78,27.09-5.78,27.09,0,0-.63,22.44,13.28,33.89l-1.7,5.85"/>
      <polyline class="cls-3" points="88.02 111.46 88.02 111.49 90.36 139.3"/>
      <path class="cls-3" d="M99.64,175.97c-.07-.01-.13-.03-.19-.04-.09-.02-.18-.03-.26-.06-16.31-3.45-17.12-21.78-16.83-29.94.14-3.87,3.98-5.68,8-6.52,3.99-.82,8.16-.68,9.09-.64.12.01.19.01.19.01"/>
      <path class="cls-3" d="M99.16,109s.12,0,.33.01c1.3.04,6.23.34,11.38,2.48,3.66,1.51,7.43,3.96,10.08,7.88,7.01,10.37,5.79,27.09,5.79,27.09,0,0,2.03,22.96-11.88,34.4l1.38,5.34"/>
      <polyline class="cls-3" points="110.87 111.46 110.87 111.49 108.53 139.3"/>
      <path class="cls-3" d="M99.25,175.97c.07-.01.14-.03.2-.04,16.57-3.32,17.38-21.8,17.08-30-.14-3.87-3.98-5.68-8-6.52-3.98-.82-8.13-.68-9.08-.64-.13.01-.2.01-.2.01"/>
      <polyline class="cls-3" points="99.18 200.77 99.19 175.87 99.19 175.83"/>
    </g>
  </g>
  <g>
    <g>
      <path class="cls-6" d="M937.44,199.9h.1s3.12,6.77,3.12,6.77c-.48.44-3.49,3.01-11.41,4.09l-.06-.46,5.38-79.62c3.22,1.34,6.55,3.5,8.89,6.96,6.18,9.14,5.1,23.88,5.1,23.88,0,0-.26,20.5-12.52,30.6.54,2.94,1.28,7.1,1.4,7.78Z"/>
      <path class="cls-6" d="M934.57,130.68l-5.38,79.62.06.46c-1.33.19-2.8.33-4.42.41h-.04c-1.35-.07-2.59-.19-3.74-.33l.07-.54-6.7-79.62c4.5-1.86,8.81-2.14,10-2.18.04-.01.1,0,.16,0,1.19.04,5.49.32,9.99,2.18Z"/>
      <path class="cls-6" d="M914.42,130.68l6.7,79.62-.07.54c-8.34-1.04-11.7-3.72-12.22-4.17l3.69-6.78.03-.59.41-7.18c-12.27-10.1-12.53-30.6-12.53-30.6,0,0-1.08-14.74,5.1-23.88,2.35-3.46,5.67-5.61,8.89-6.96Z"/>
      <path class="cls-11" d="M892.7,308.52c-.38-3.15-2.16-16.81-4.87-27.6-3.27-13.08-3.03-17.65-3.03-17.65l-.53-.1c.38-2.05.72-4.08,1.03-6.05h.11l1.73-46.02-.11-1.03c6.91-.74,14.61-1.1,21.76-3.33l.04-.07c.52.45,3.88,3.13,12.22,4.17,1.15.14,2.39.26,3.74.33h.04c1.62-.08,3.09-.22,4.42-.41,7.92-1.08,10.93-3.65,11.41-4.09l.03.07c7.08,2.21,14.7,2.58,21.55,3.31l-.11,1,2.12,46.49c.28,1.84.61,3.72.96,5.63l-.53.1s.24,4.57-3.03,17.65c-2.71,10.79-4.49,24.45-4.87,27.6.39,1.1,2.16,6.11,7.44,20.89,0,0,4.52,8,7.58,30.94,0,0-25.77,4.84-41.26,34.18h-11.61c-15.48-29.34-41.25-34.18-41.25-34.18,3.06-22.94,7.58-30.94,7.58-30.94,5.28-14.78,7.05-19.79,7.44-20.89Z"/>
      <path class="cls-9" d="M990.94,257.35c.52,3.79,1.29,9.3,2.3,16.68-1.87,1.39-11.33,7.75-24.42,6.38-1.11-4.76-2.19-9.75-3.14-14.65l.75-.14c16.01.33,23.27-6.89,24.51-8.27Z"/>
      <path class="cls-8" d="M997.06,302.16l10.86,65.92c-2.59,4.09-10.33,6.64-15.8,6.62,0,0-8.71-26.84-15.85-65.76,0,0-3.85-13.09-7.45-28.53,13.09,1.37,22.55-4.99,24.42-6.38,1.02,7.43,2.28,16.76,3.82,28.13Z"/>
      <path class="cls-8" d="M990.03,250.89s.3,2.08.91,6.46c-1.24,1.38-8.5,8.6-24.51,8.27l-.75.14c-.16-.87-.32-1.73-.47-2.59-.35-1.91-.68-3.79-.96-5.63l-2.12-46.49.11-1c.25.03.5.05.75.08,7.05.77,13.22,2,17.07,6.12,0,0,6.46,10.05,9.97,34.64Z"/>
      <path class="cls-8" d="M887.03,210.07l.11,1.03-1.73,46.02h-.11c-.31,1.97-.65,4-1.03,6.05-3.9,21.44-11.06,45.77-11.06,45.77-7.14,38.92-15.86,65.76-15.86,65.76-5.46.02-13.2-2.53-15.8-6.62l10.87-65.92c4.81-35.69,7.03-51.27,7.03-51.27,3.5-24.59,9.97-34.64,9.97-34.64,3.84-4.12,10.01-5.35,17.06-6.12.18-.02.37-.04.55-.06Z"/>
    </g>
    <g>
      <path class="cls-4" d="M912.52,199.89l-3.69,6.78-.04.07c-7.15,2.23-14.85,2.59-21.76,3.33-.18.02-.37.04-.55.06-7.05.77-13.22,2-17.06,6.12,0,0-6.47,10.05-9.97,34.64,0,0-2.22,15.58-7.03,51.27l-10.87,65.92c2.6,4.09,10.34,6.64,15.8,6.62,0,0,8.72-26.84,15.86-65.76,0,0,7.16-24.33,11.06-45.77.38-2.05.72-4.08,1.03-6.05"/>
      <path class="cls-4" d="M892.79,308.27s-.03.08-.09.25c-.39,1.1-2.16,6.11-7.44,20.89,0,0-4.52,8-7.58,30.94,0,0,25.77,4.84,41.25,34.18h5.81"/>
      <path class="cls-4" d="M924.83,211.17c.06,0,.13.01.2.01"/>
      <path class="cls-4" d="M908.75,206.59l.08.08c.52.45,3.88,3.13,12.22,4.17,1.15.14,2.39.26,3.74.33"/>
      <path class="cls-4" d="M884.8,263.27s-.24,4.57,3.03,17.65c2.71,10.79,4.49,24.45,4.87,27.6.06.44.09.67.09.67"/>
      <path class="cls-4" d="M937.54,199.89l3.12,6.78.03.07c7.08,2.21,14.7,2.58,21.55,3.31.25.03.5.05.75.08,7.05.77,13.22,2,17.07,6.12,0,0,6.46,10.05,9.97,34.64,0,0,.3,2.08.91,6.46.52,3.79,1.29,9.3,2.3,16.68,1.02,7.43,2.28,16.76,3.82,28.13l10.86,65.92c-2.59,4.09-10.33,6.64-15.8,6.62,0,0-8.71-26.84-15.85-65.76,0,0-3.85-13.09-7.45-28.53-1.11-4.76-2.19-9.75-3.14-14.65-.16-.87-.32-1.73-.47-2.59-.35-1.91-.68-3.79-.96-5.63-.03-.14-.05-.28-.07-.42"/>
      <path class="cls-4" d="M991.14,257.12s-.06.08-.2.23c-1.24,1.38-8.5,8.6-24.51,8.27"/>
      <path class="cls-4" d="M993.58,273.78s-.12.09-.34.25c-1.87,1.39-11.33,7.75-24.42,6.38-.03,0-.05-.01-.08-.01"/>
      <path class="cls-4" d="M956.69,308.27s.03.08.09.25c.39,1.1,2.16,6.11,7.44,20.89,0,0,4.52,8,7.58,30.94,0,0-25.77,4.84-41.26,34.18h-5.8"/>
      <path class="cls-4" d="M940.73,206.59s-.02.02-.07.08c-.48.44-3.49,3.01-11.41,4.09-1.33.19-2.8.33-4.42.41h-.04"/>
      <path class="cls-4" d="M964.68,263.27s.24,4.57-3.03,17.65c-2.71,10.79-4.49,24.45-4.87,27.6-.06.44-.09.67-.09.67"/>
      <polyline class="cls-4" points="964.27 258.06 964.25 257.54 962.13 211.05"/>
      <polyline class="cls-4" points="885.38 258.01 885.41 257.12 887.14 211.1"/>
      <path class="cls-3" d="M924.42,128.5c-1.19.04-5.5.32-10,2.18-3.22,1.35-6.54,3.5-8.89,6.96-6.18,9.14-5.1,23.88-5.1,23.88,0,0,.26,20.5,12.53,30.6l-.41,7.18"/>
      <path class="cls-3" d="M924.75,128.49s-.06,0-.17.01"/>
      <polyline class="cls-3" points="914.42 130.66 914.42 130.68 921.12 210.3"/>
      <path class="cls-3" d="M924.25,128.49s.06,0,.17.01c.04-.01.1,0,.16,0,1.19.04,5.49.32,9.99,2.18,3.22,1.34,6.55,3.5,8.89,6.96,6.18,9.14,5.1,23.88,5.1,23.88,0,0-.26,20.5-12.52,30.6.54,2.94,1.28,7.1,1.4,7.78,0,.07.02.1.02.1"/>
      <polyline class="cls-3" points="934.57 130.66 934.57 130.68 929.19 210.3"/>
    </g>
  </g>
  <g>
    <g>
      <path class="cls-2" d="M924.74,521.6l-3.76,14.02-19.88,73.46c1.32,23.9-5.84,63.02-8.84,72.16-3.01,9.13-8.26,63.9-8.26,63.9l-17.26-1.32s2.72-75.37,2.11-98.66c-.62-23.29,6.45-48.41,6.45-48.41-1.11-40.37.04-56.39.04-56.39,0,0-.74-25.67-.49-33.43.66-20.56,6.29-36.91,14.67-53.99,5.63-27.56-2.81-43.16-2.81-43.16l7.78.43s13.7,3.4,30.25,5.45v105.9s0,.04,0,.04Z"/>
      <path class="cls-2" d="M982.74,743.82l-17.26,1.32s-5.25-54.77-8.26-63.9c-3-9.14-10.16-48.26-8.84-72.16l-19.89-73.46-3.75-14.02v-.04s0-105.9,0-105.9c16.55-2.05,30.25-5.45,30.25-5.45l7.78-.43s-8.44,15.6-2.81,43.16c8.38,17.08,14.01,33.43,14.67,53.99.25,7.76-.49,33.43-.49,33.43,0,0,1.15,16.02.04,56.39,0,0,7.07,25.12,6.45,48.41-.61,23.29,2.11,98.66,2.11,98.66Z"/>
    </g>
    <g>
      <path class="cls-4" d="M924.74,415.66c-16.55-2.05-30.25-5.45-30.25-5.45l-7.78-.43s8.44,15.6,2.81,43.16c-8.38,17.08-14.01,33.43-14.67,53.99-.25,7.76.49,33.43.49,33.43,0,0-1.15,16.02-.04,56.39,0,0-7.07,25.12-6.45,48.41.61,23.29-2.11,98.66-2.11,98.66l17.26,1.32s5.25-54.77,8.26-63.9c3-9.14,10.16-48.26,8.84-72.16l19.88-73.46"/>
      <polyline class="cls-4" points="920.98 535.62 924.74 521.6 924.75 521.56"/>
      <path class="cls-4" d="M924.74,415.66c16.55-2.05,30.25-5.45,30.25-5.45l7.78-.43s-8.44,15.6-2.81,43.16c8.38,17.08,14.01,33.43,14.67,53.99.25,7.76-.49,33.43-.49,33.43,0,0,1.15,16.02.04,56.39,0,0,7.07,25.12,6.45,48.41-.61,23.29,2.11,98.66,2.11,98.66l-17.26,1.32s-5.25-54.77-8.26-63.9c-3-9.14-10.16-48.26-8.84-72.16l-19.89-73.46"/>
      <polyline class="cls-4" points="928.49 535.62 924.74 521.6 924.73 521.56"/>
      <line class="cls-4" x1="924.74" y1="415.66" x2="924.75" y2="521.56"/>
    </g>
  </g>
  <g>
    <g>
      <path class="cls-6" d="M703.58,188.78v23.69c-10.81-.64-14.5-3.97-15.01-4.48l3.29-7.36.41-7.19c-12.27-10.09-12.53-30.59-12.53-30.59,0,0-1.08-14.75,5.1-23.89,2.34-3.46,5.66-5.61,8.89-6.96l2.07,24.53.02.1c-3.56.74-6.95,2.33-7.08,5.75-.26,7.19.45,23.36,14.84,26.4Z"/>
      <path class="cls-6" d="M713.88,132l-2.06,24.53-.02.1c-3.39-.69-6.93-.6-7.9-.56h-.04c-.7-.03-4.45-.17-8.04.56l-.02-.1-2.07-24.53c4.5-1.86,8.81-2.14,10-2.18.04-.01.1,0,.16,0,1.19.04,5.49.32,9.99,2.18Z"/>
      <path class="cls-6" d="M703.81,188.83c14.61-2.92,15.32-19.22,15.06-26.45-.12-3.42-3.51-5.01-7.07-5.75l.02-.1,2.06-24.53c3.22,1.34,6.55,3.5,8.89,6.96,6.18,9.14,5.1,23.89,5.1,23.89,0,0-.26,20.5-12.52,30.59.59,3.21,1.42,7.88,1.42,7.88l2.71,6.66c-.49.49-4.25,3.94-15.46,4.51-.15-.01-.3-.01-.45-.02v-23.69c.08.03.16.04.24.05Z"/>
      <polygon class="cls-7" points="711.7 384.62 709.43 404.4 698.54 404.4 696.34 384.62 703.81 384.62 704.24 384.62 711.7 384.62"/>
      <path class="cls-11" d="M704.02,212.49c11.21-.57,14.97-4.02,15.46-4.51l.03.08c4.03,1.26,8.24,1.92,12.39,2.4-.22.93-12.34,52.67-10.58,117.63.25,9.29,14.46,42.33,14.46,42.33l-24.08,14.2h-15.36l-24.07-14.2s14.2-33.04,14.45-42.33c1.74-64.06-10.68-115.27-11.24-117.56,4.37-.48,8.81-1.14,13.06-2.47l.03-.07c.51.51,4.2,3.84,15,4.48.15,0,.3,0,.45.02Z"/>
      <path class="cls-9" d="M662.98,266.94l.56.1c-.94,4.91-2.03,9.91-3.14,14.69-13.08,1.38-22.54-4.98-24.41-6.37,1.01-7.37,1.77-12.88,2.31-16.67,1.29,1.4,8.7,8.58,24.68,8.25Z"/>
      <path class="cls-10" d="M673.03,311.45c.18-8.71-2.16-23.09-2.47-21.92,0,0,.26.68.3.81-.08-.18-.77-1.84-3.28-8.09-4.23-10.52-3.31-16.36-3.08-17.47l-.52-.1c.39-2.11.75-4.2,1.06-6.23l3.61-47.25c2.23-.22,4.52-.42,6.83-.67.56,2.29,12.98,53.5,11.24,117.56-.25,9.29-14.45,42.33-14.45,42.33l-14.84-8.75c5.56-20.44,9.44-30.22,9.44-30.22,6.12-17.13,6.12-20,6.12-20h.04Z"/>
      <path class="cls-10" d="M743.54,264.78c.23,1.11,1.15,6.95-3.08,17.47-2.51,6.25-3.2,7.91-3.28,8.09.04-.13.3-.81.3-.81-.31-1.17-2.64,13.21-2.47,21.92h.04s0,2.87,6.12,20c0,0,3.89,9.78,9.44,30.22l-14.83,8.75s-14.21-33.04-14.46-42.33c-1.76-64.96,10.36-116.7,10.58-117.63,2.48.28,4.93.49,7.31.72l3.79,47.27c.31,2.03.67,4.12,1.06,6.23l-.52.1Z"/>
      <path class="cls-8" d="M660.4,281.73c-3.59,15.44-7.44,28.54-7.44,28.54-7.14,38.92-15.86,65.75-15.86,65.75-5.46.02-13.21-2.53-15.8-6.62l10.87-65.92c1.53-11.37,2.8-20.69,3.82-28.12,1.87,1.39,11.33,7.75,24.41,6.37Z"/>
      <path class="cls-8" d="M668.65,211.2l-3.61,47.25c-.31,2.03-.67,4.12-1.06,6.23-.14.78-.29,1.57-.44,2.36l-.56-.1c-15.98.33-23.39-6.85-24.68-8.25.61-4.39.9-6.48.9-6.48,3.5-24.59,9.96-34.64,9.96-34.64,4.28-4.59,11.45-5.59,19.49-6.37Z"/>
      <path class="cls-8" d="M775.87,303.48l10.87,65.92c-2.59,4.09-10.34,6.64-15.8,6.62,0,0-8.72-26.83-15.85-65.75,0,0-7.11-24.19-11.03-45.59-.39-2.11-.75-4.2-1.06-6.23l-3.79-47.27c8.11.78,15.36,1.77,19.67,6.39,0,0,6.46,10.05,9.96,34.64,0,0,2.22,15.58,7.03,51.27Z"/>
    </g>
    <g>
      <path class="cls-4" d="M638.09,258.45l.21.24c1.29,1.4,8.7,8.58,24.68,8.25"/>
      <path class="cls-4" d="M635.65,275.11s.12.09.34.25c1.87,1.39,11.33,7.75,24.41,6.37.03,0,.05,0,.08,0"/>
      <path class="cls-4" d="M672.99,311.45s0,2.87-6.12,20c0,0-3.88,9.78-9.44,30.22l14.84,8.75,24.07,14.2h7.47"/>
      <path class="cls-4" d="M688.5,207.91s.02.02.07.08c.51.51,4.2,3.84,15,4.48.15,0,.3,0,.45.02.06,0,.12.01.18.01"/>
      <path class="cls-4" d="M675.46,210.45s.01.03.02.08c.56,2.29,12.98,53.5,11.24,117.56-.25,9.29-14.45,42.33-14.45,42.33"/>
      <path class="cls-4" d="M670.87,290.36s0,0,0-.02c-.04-.13-.3-.81-.3-.81.31-1.17,2.65,13.21,2.47,21.92v.15"/>
      <path class="cls-4" d="M664.55,264.59s-.02.06-.05.19c-.23,1.11-1.15,6.95,3.08,17.47,2.51,6.25,3.2,7.91,3.28,8.09"/>
      <path class="cls-4" d="M735.05,311.45s0,2.87,6.12,20c0,0,3.89,9.78,9.44,30.22l-14.83,8.75-24.08,14.2h-7.89"/>
      <path class="cls-4" d="M719.54,207.91s-.02.02-.06.07c-.49.49-4.25,3.94-15.46,4.51-.06,0-.12.01-.18.01"/>
      <path class="cls-4" d="M731.9,210.45h0c-.22.94-12.34,52.68-10.58,117.64.25,9.29,14.46,42.33,14.46,42.33"/>
      <path class="cls-4" d="M737.18,290.34c.04-.13.3-.81.3-.81-.31-1.17-2.64,13.21-2.47,21.92v.15"/>
      <path class="cls-4" d="M743.49,264.59s.02.06.05.19c.23,1.11,1.15,6.95-3.08,17.47-2.51,6.25-3.2,7.91-3.28,8.09-.01.01-.01.02-.01.02"/>
      <polyline class="cls-4" points="696.34 384.62 698.54 404.4 709.43 404.4 711.7 384.62"/>
      <path class="cls-4" d="M668.65,211.2l-3.61,47.25c-.31,2.03-.67,4.12-1.06,6.23-.14.78-.29,1.57-.44,2.36-.94,4.91-2.03,9.91-3.14,14.69-3.59,15.44-7.44,28.54-7.44,28.54-7.14,38.92-15.86,65.75-15.86,65.75-5.46.02-13.21-2.53-15.8-6.62l10.87-65.92c1.53-11.37,2.8-20.69,3.82-28.12,1.01-7.37,1.77-12.88,2.31-16.67.61-4.39.9-6.48.9-6.48,3.5-24.59,9.96-34.64,9.96-34.64,4.28-4.59,11.45-5.59,19.49-6.37,2.23-.22,4.52-.42,6.83-.67,4.37-.48,8.81-1.14,13.06-2.47l.03-.07,3.29-7.36"/>
      <path class="cls-4" d="M739.21,211.18l3.79,47.27c.31,2.03.67,4.12,1.06,6.23,3.92,21.4,11.03,45.59,11.03,45.59,7.13,38.92,15.85,65.75,15.85,65.75,5.46.02,13.21-2.53,15.8-6.62l-10.87-65.92c-4.81-35.69-7.03-51.27-7.03-51.27-3.5-24.59-9.96-34.64-9.96-34.64-4.31-4.62-11.56-5.61-19.67-6.39-2.38-.23-4.83-.44-7.31-.72-4.15-.48-8.36-1.14-12.39-2.4l-.03-.08-2.71-6.66"/>
      <path class="cls-4" d="M703.73,129.82c-1.19.04-5.5.32-10,2.18-3.23,1.35-6.55,3.5-8.89,6.96-6.18,9.14-5.1,23.89-5.1,23.89,0,0,.26,20.5,12.53,30.59l-.41,7.19"/>
      <path class="cls-4" d="M704.06,129.81s-.06,0-.17.01"/>
      <polyline class="cls-4" points="693.73 131.98 693.73 132 695.8 156.53"/>
      <path class="cls-4" d="M703.9,156.07s.08.01.08.01"/>
      <path class="cls-4" d="M703.98,188.87c-.06-.01-.12-.02-.17-.04-.08-.01-.16-.02-.23-.05-14.39-3.04-15.1-19.21-14.84-26.4.13-3.42,3.52-5.01,7.08-5.75,3.59-.73,7.34-.59,8.04-.56"/>
      <path class="cls-4" d="M703.56,129.81s.06,0,.17.01c.04-.01.1,0,.16,0,1.19.04,5.49.32,9.99,2.18,3.22,1.34,6.55,3.5,8.89,6.96,6.18,9.14,5.1,23.89,5.1,23.89,0,0-.26,20.5-12.52,30.59.59,3.21,1.42,7.88,1.42,7.88"/>
      <polyline class="cls-4" points="713.88 131.98 713.88 132 711.82 156.53"/>
      <path class="cls-4" d="M703.64,188.87c.06-.01.12-.02.17-.04,14.61-2.92,15.32-19.22,15.06-26.45-.12-3.42-3.51-5.01-7.07-5.75-3.39-.69-6.93-.6-7.9-.56h-.04c-.14.01-.22.01-.22.01"/>
      <polyline class="cls-4" points="703.57 212.5 703.57 212.47 703.58 188.78 703.58 188.75"/>
    </g>
  </g>
  <g>
    <g>
      <path class="cls-6" d="M339.54,112.64l7.39,87.92-.02.68c-11.05-.42-18.34-2.93-18.34-2.93l-.82-.02c1.45-1.26,5.03-4.81,7.54-10.81l1.67-5.98c-13.91-11.45-13.29-33.89-13.29-33.89,0,0-1.23-16.72,5.79-27.09,2.66-3.93,6.43-6.37,10.08-7.88Z"/>
      <path class="cls-6" d="M362.39,112.64l-5.45,87.92.03.45c-3.6.3-6.98.35-10.06.23l.02-.68-7.39-87.92c5.28-2.19,10.32-2.45,11.46-2.48,1.28.04,6.23.34,11.39,2.48Z"/>
      <path class="cls-6" d="M372.46,120.52c7.02,10.37,5.79,27.09,5.79,27.09,0,0,2.03,22.96-11.88,34.4l1.13,5.47c1.39,4.28,4.91,8.05,6.96,9.98-6.14,2.01-12.06,3.08-17.49,3.55l-.03-.45,5.45-87.92c3.65,1.51,7.41,3.95,10.07,7.88Z"/>
      <path class="cls-7" d="M371.22,374.79c-7.62,9.05-10.6,19.84-10.6,19.84h-18.13s-2.97-10.79-10.6-19.84c0,0,18.5-25.37,39.33,0Z"/>
      <path class="cls-11" d="M301.3,261.01c-.31-2.59-.49-4.16-.49-4.24l5.83-54.85,20.47-3.1s.24-.17.64-.53l.82.02s7.29,2.51,18.34,2.93c3.08.12,6.46.07,10.06-.23,5.43-.47,11.35-1.54,17.49-3.55.93.86,1.55,1.36,1.55,1.36l18.66,2.82,7.63,55.13c0,.06-.12,1.1-.33,2.87h-.26c.03.46.06.91.1,1.37-1.6,13.44-6.56,54.22-6.56,54.59-.04.37-.7,5.22-.39,10.1,0,0,3.37,15.96,6.55,32.54,0,0-16.82,3.57-26.89,13.05-1.18,1.12-2.28,2.29-3.3,3.5-20.83-25.37-39.33,0-39.33,0-1.01-1.21-2.11-2.38-3.3-3.5-10.07-9.48-26.89-13.05-26.89-13.05,3.19-16.58,6.56-32.54,6.56-32.54.3-4.88-.36-9.73-.4-10.1,0-.44-4.96-41.17-6.56-54.59Z"/>
      <path class="cls-9" d="M435.09,267.73l-.61.09s-12.4,8.05-30.43,6.65c-1.06-4.3-1.89-8.85-2.24-13.46.06-.49.11-.95.16-1.37,21.84.3,29.47-8.48,29.47-8.48,1.17,3.8,2.53,9.25,3.65,16.57Z"/>
      <path class="cls-8" d="M306.64,201.92l-5.83,54.85c0,.08.18,1.65.49,4.24-1.61,20.64-12.47,40.23-12.47,40.23-.99,5.9-1.58,6.48-6.31,20.81-6.54,19.82-15.44,46.65-15.44,46.68-6.51.02-11.56-.29-14.64-4.38l13.37-68.16c.57-37.22,8.51-51.99,8.51-51.99-.82-22.08,6.3-31.9,6.3-31.9,3.66-9.78,17.33-9.07,17.33-9.07l8.69-1.31Z"/>
      <path class="cls-8" d="M437.31,296.19l13.37,68.16c-3.09,4.09-8.14,4.4-14.64,4.38,0,0-8.9-26.85-15.45-46.68-4.73-14.33-5.31-14.91-6.3-20.81,0,0-6.56-11.82-10.24-26.77,18.03,1.4,30.43-6.65,30.43-6.65l.61-.09c1.15,7.46,2.05,16.87,2.22,28.46Z"/>
      <path class="cls-8" d="M422.49,212.3s7.12,9.82,6.3,31.9c0,0,1.17,2.17,2.65,6.96,0,0-7.63,8.78-29.47,8.48.21-1.77.33-2.81.33-2.87l-7.63-55.13,10.5,1.59s13.67-.71,17.32,9.07Z"/>
    </g>
    <g>
      <path class="cls-4" d="M335.29,187.48c-2.51,6-6.09,9.55-7.54,10.81-.4.36-.64.53-.64.53l-20.47,3.1-8.69,1.31s-13.67-.71-17.33,9.07c0,0-7.12,9.82-6.3,31.9,0,0-7.94,14.77-8.51,51.99l-13.37,68.16c3.08,4.09,8.13,4.4,14.64,4.38,0-.03,8.9-26.86,15.44-46.68,4.73-14.33,5.32-14.91,6.31-20.81"/>
      <path class="cls-4" d="M288.83,301.24s10.86-19.59,12.47-40.23c.04-.46.07-.91.1-1.37"/>
      <path class="cls-4" d="M307.86,315.6c.04.37.7,5.22.4,10.1,0,0-3.37,15.96-6.56,32.54,0,0,16.82,3.57,26.89,13.05,1.19,1.12,2.29,2.29,3.3,3.5,7.63,9.05,10.6,19.84,10.6,19.84h9.07"/>
      <path class="cls-4" d="M306.64,201.92l-5.83,54.85c0,.08.18,1.65.49,4.24,1.6,13.42,6.56,54.15,6.56,54.59t-.01-.02"/>
      <path class="cls-4" d="M367.5,187.48c1.39,4.28,4.91,8.05,6.96,9.98.93.86,1.55,1.36,1.55,1.36l18.66,2.82,10.5,1.59s13.67-.71,17.32,9.07c0,0,7.12,9.82,6.3,31.9,0,0,1.17,2.17,2.65,6.96,1.17,3.8,2.53,9.25,3.65,16.57,1.15,7.46,2.05,16.87,2.22,28.46l13.37,68.16c-3.09,4.09-8.14,4.4-14.64,4.38,0,0-8.9-26.85-15.45-46.68-4.73-14.33-5.31-14.91-6.3-20.81"/>
      <path class="cls-4" d="M414.29,301.24s-6.56-11.82-10.24-26.77c-1.06-4.3-1.89-8.85-2.24-13.46-.04-.46-.07-.91-.1-1.37"/>
      <path class="cls-4" d="M431.44,251.16s-7.63,8.78-29.47,8.48h-.26"/>
      <path class="cls-4" d="M434.48,267.82s-12.4,8.05-30.43,6.65c-.16-.01-.32-.03-.48-.04"/>
      <path class="cls-4" d="M395.26,315.58s0,.01-.01.02c-.04.37-.7,5.22-.39,10.1,0,0,3.37,15.96,6.55,32.54,0,0-16.82,3.57-26.89,13.05-1.18,1.12-2.28,2.29-3.3,3.5-7.62,9.05-10.6,19.84-10.6,19.84h-9.06"/>
      <path class="cls-4" d="M394.67,201.64l7.63,55.13c0,.06-.12,1.1-.33,2.87-.05.42-.1.88-.16,1.37-1.6,13.44-6.56,54.22-6.56,54.59"/>
      <path class="cls-4" d="M331.89,374.79s18.5-25.37,39.33,0"/>
      <path class="cls-4" d="M328.57,198.31s7.29,2.51,18.34,2.93c3.08.12,6.46.07,10.06-.23,5.43-.47,11.35-1.54,17.49-3.55"/>
      <path class="cls-3" d="M351.24,110.15s-.08,0-.24.01c-1.14.03-6.18.29-11.46,2.48-3.65,1.51-7.42,3.95-10.08,7.88-7.02,10.37-5.79,27.09-5.79,27.09,0,0-.62,22.44,13.29,33.89l-1.67,5.98"/>
      <polyline class="cls-3" points="339.54 112.61 339.54 112.64 346.93 200.56"/>
      <path class="cls-3" d="M350.68,110.15s.11,0,.32.01c1.28.04,6.23.34,11.39,2.48,3.65,1.51,7.41,3.95,10.07,7.88,7.02,10.37,5.79,27.09,5.79,27.09,0,0,2.03,22.96-11.88,34.4l1.13,5.47"/>
      <polyline class="cls-3" points="362.39 112.61 362.39 112.64 356.94 200.56"/>
    </g>
  </g>
  <path class="cls-5" d="M709.15,241.75l-2.48-1.66c.09-.25.14-.51.15-.78l2.99-.76-5.18.21.2-.12.54-.33,1.31.07c-.12-.36-.32-.68-.58-.95l3.19-2.34-3.5,2.06c-.06-.04-.12-.08-.18-.12l1.45-3.63-2.6,4.5-.18-.48.5-.73c-.18-.04-.36-.06-.55-.06-.12,0-.24.01-.35.03l-1.4-3.54,1.02,3.62c-.33.1-.63.25-.89.46l-3.37-3.01,4.29,4.92-.73-.05-.08-.1-.74-1.02c-.18.32-.3.69-.33,1.08l-3,.18,3,.12c.02.39.12.77.29,1.09l-2.53,2.46,4.15-2.85-.31.65-.77.44c.28.26.62.46,1,.58l-1.01,3,1.33-2.92c.14.02.29.04.44.04.35,0,.69-.07,1-.2l1.62,2.11-1.53-3.59.63.55.11.37c.17-.18.32-.38.44-.59l2.64,1.29Z"/>
  <g>
    <path class="cls-5" d="M653,255.13c.12.18.18.39.18.63s-.06.47-.19.65c-.13.18-.31.27-.56.27-.28,0-.47-.09-.58-.28-.11-.18-.17-.4-.17-.63,0-.22.05-.42.16-.61s.3-.29.59-.29c.27,0,.46.09.57.27ZM652.76,255.76c0-.21-.03-.36-.09-.47-.06-.1-.14-.15-.25-.15-.11,0-.19.05-.25.17-.06.11-.09.26-.09.45,0,.2.03.36.1.47s.14.16.24.16.18-.05.25-.16.09-.26.09-.47Z"/>
    <polygon class="cls-5" points="652.63 244.7 651.06 246.62 650.34 247.59 650.34 251.12 651.06 252.09 652.63 254.02 650.91 254.02 649.48 252.09 648.06 254.02 646.34 254.02 647.91 252.09 648.63 251.12 648.63 247.59 647.91 246.62 646.34 244.7 648.06 244.7 649.48 246.62 650.91 244.7 652.63 244.7"/>
    <polygon class="cls-5" points="651.51 254.88 651.51 255.17 651.02 255.17 651.02 256.65 650.61 256.65 650.61 255.17 650.12 255.17 650.12 254.88 651.51 254.88"/>
    <path class="cls-5" d="M649.79,255.13c.12.18.18.39.18.63s-.06.47-.19.65-.31.27-.56.27c-.28,0-.47-.09-.58-.28-.11-.18-.17-.4-.17-.63,0-.22.05-.42.16-.61s.3-.29.59-.29c.27,0,.46.09.57.27ZM649.55,255.76c0-.21-.03-.36-.09-.47-.06-.1-.14-.15-.25-.15-.11,0-.19.05-.25.17s-.09.26-.09.45c0,.2.03.36.1.47s.15.16.25.16.18-.05.25-.16.09-.26.09-.47Z"/>
    <polygon class="cls-5" points="648.24 254.88 648.24 256.65 647.82 256.65 647.82 255.88 647.54 256.65 647.24 256.65 646.96 255.88 646.96 256.65 646.55 256.65 646.55 254.88 646.98 254.88 647.39 256.03 647.8 254.88 648.24 254.88"/>
    <path class="cls-5" d="M645.66,254.87l.73,1.77h-.43l-.13-.31h-.61l-.13.31h-.43l.73-1.77h.28ZM645.71,256l-.19-.52-.19.52h.39Z"/>
    <polygon class="cls-5" points="646.34 244.7 644.77 246.62 644.06 247.59 644.06 251.12 644.77 252.09 646.34 254.02 644.63 254.02 643.2 252.09 641.77 254.02 640.06 254.02 641.63 252.09 642.34 251.12 642.34 247.59 641.63 246.62 640.06 244.7 641.77 244.7 643.2 246.62 644.63 244.7 646.34 244.7"/>
    <polygon class="cls-5" points="644.49 254.88 644.49 256.65 644.08 256.65 644.08 255.88 643.79 256.65 643.5 256.65 643.21 255.88 643.21 256.65 642.8 256.65 642.8 254.88 643.24 254.88 643.65 256.03 644.06 254.88 644.49 254.88"/>
    <path class="cls-5" d="M641.92,254.87l.73,1.77h-.43l-.13-.31h-.61l-.13.31h-.43l.73-1.77h.28ZM641.97,256l-.19-.52-.19.52h.39Z"/>
    <polygon class="cls-5" points="640.86 254.88 640.32 255.9 640.32 256.65 639.91 256.65 639.91 255.9 639.37 254.88 639.8 254.88 640.11 255.52 640.43 254.88 640.86 254.88"/>
  </g>
  <g>
    <path class="cls-5" d="M35.44,246.34c.13.2.2.43.2.71s-.07.52-.22.72c-.14.2-.35.3-.62.3-.31,0-.52-.1-.65-.31-.13-.2-.19-.44-.19-.71,0-.24.06-.47.18-.68s.34-.32.66-.32c.3,0,.51.1.64.3ZM35.18,247.05c0-.23-.03-.41-.1-.52s-.16-.17-.28-.17c-.12,0-.21.06-.28.19-.07.12-.1.29-.1.51,0,.23.04.4.11.52.07.12.16.18.27.18s.21-.06.28-.18.1-.29.1-.52Z"/>
    <polygon class="cls-5" points="35.02 234.7 33.27 236.85 32.48 237.93 32.48 241.87 33.27 242.95 35.02 245.1 33.11 245.1 31.52 242.95 29.92 245.1 28.01 245.1 29.77 242.95 30.56 241.87 30.56 237.93 29.77 236.85 28.01 234.7 29.92 234.7 31.52 236.85 33.11 234.7 35.02 234.7"/>
    <polygon class="cls-5" points="33.78 246.07 33.78 246.38 33.23 246.38 33.23 248.04 32.77 248.04 32.77 246.38 32.22 246.38 32.22 246.07 33.78 246.07"/>
    <path class="cls-5" d="M31.86,246.34c.13.2.2.43.2.71s-.07.52-.22.72-.35.3-.62.3c-.31,0-.52-.1-.65-.31-.12-.2-.19-.44-.19-.71,0-.24.06-.47.18-.68s.34-.32.66-.32c.3,0,.51.1.64.3ZM31.6,247.05c0-.23-.04-.41-.1-.52s-.16-.17-.28-.17-.21.06-.28.19c-.07.12-.1.29-.1.51,0,.23.04.4.11.52s.16.18.27.18.21-.06.28-.18.1-.29.1-.52Z"/>
    <polygon class="cls-5" points="30.13 246.07 30.13 248.04 29.67 248.04 29.67 247.19 29.35 248.04 29.02 248.04 28.7 247.19 28.7 248.04 28.24 248.04 28.24 246.07 28.73 246.07 29.18 247.34 29.64 246.07 30.13 246.07"/>
    <path class="cls-5" d="M27.25,246.06l.81,1.98h-.48l-.15-.35h-.68l-.14.35h-.48l.81-1.98h.32ZM27.31,247.31l-.22-.59-.22.59h.43Z"/>
    <polygon class="cls-5" points="28.01 234.7 26.26 236.85 25.46 237.93 25.46 241.87 26.26 242.95 28.01 245.1 26.1 245.1 24.51 242.95 22.91 245.1 21 245.1 22.75 242.95 23.55 241.87 23.55 237.93 22.75 236.85 21 234.7 22.91 234.7 24.51 236.85 26.1 234.7 28.01 234.7"/>
    <polygon class="cls-5" points="25.95 246.07 25.95 248.04 25.49 248.04 25.49 247.19 25.17 248.04 24.84 248.04 24.52 247.19 24.52 248.04 24.07 248.04 24.07 246.07 24.55 246.07 25.01 247.34 25.46 246.07 25.95 246.07"/>
    <path class="cls-5" d="M23.07,246.06l.81,1.98h-.48l-.14-.35h-.68l-.15.35h-.48l.81-1.98h.32ZM23.13,247.31l-.22-.59-.22.59h.43Z"/>
    <polygon class="cls-5" points="21.89 246.07 21.29 247.21 21.29 248.04 20.84 248.04 20.84 247.21 20.24 246.07 20.71 246.07 21.06 246.79 21.42 246.07 21.89 246.07"/>
  </g>
  <g>
    <g>
      <path class="cls-5" d="M83.99,245.98c-.41.35-.92.52-1.52.52-.32,0-.62-.04-.93-.12-.15-.05-.29-.09-.39-.12-.11-.03-.2-.06-.27-.08-.07,0-.11.03-.14.08-.02.04-.04.08-.04.11h-.12l-.17-1.52.1-.06c.07.17.17.33.29.48.12.15.26.28.42.4.16.11.34.2.53.27.19.07.41.1.64.1.19,0,.37-.03.54-.09.16-.06.31-.15.43-.26.12-.11.22-.24.29-.39.07-.15.11-.31.11-.48,0-.38-.14-.69-.41-.93-.13-.11-.29-.23-.46-.35-.17-.12-.36-.23-.58-.35-.25-.13-.47-.27-.68-.41-.2-.14-.39-.28-.56-.44-.34-.32-.5-.73-.5-1.24,0-.46.19-.85.56-1.19.37-.33.83-.49,1.37-.49.29,0,.56.04.83.13.13.04.25.08.35.11.1.03.18.05.25.07.07,0,.12-.03.15-.08.02-.04.04-.08.05-.12h.11l.13,1.52h-.15c-.11-.31-.3-.58-.58-.8-.28-.22-.65-.33-1.12-.33-.34,0-.62.1-.84.3-.22.2-.33.46-.33.77s.16.59.49.86c.32.25.7.49,1.15.73l-.07-.03c.28.14.52.29.73.43.21.15.39.31.54.48.15.17.26.36.33.55.07.2.11.42.11.66,0,.51-.21.94-.63,1.29Z"/>
      <path class="cls-5" d="M85.11,246.38v-.1h.14c.13,0,.22-.04.27-.11.04-.07.07-.2.07-.39v-5.63c0-.19-.02-.32-.07-.39-.04-.07-.13-.11-.27-.11h-.14v-.1h4.49v1.04s-.13,0-.13,0c-.04-.27-.13-.43-.26-.48-.12-.05-.29-.07-.51-.07h-2.03c-.12,0-.19.01-.2.04-.01.03-.02.09-.02.19v2.31h2.04c.26,0,.43-.03.51-.1.08-.07.13-.2.15-.4h.13v1.52h-.13c-.01-.1-.03-.18-.05-.25-.02-.07-.05-.12-.1-.16-.04-.04-.11-.07-.19-.09-.08-.02-.19-.03-.32-.03h-2.04v2.63c0,.09.03.15.1.17.07.02.2.03.39.03h1.66c.16,0,.3,0,.42-.03.12-.02.22-.05.32-.11.09-.05.18-.13.25-.22.07-.09.14-.21.21-.37h.16l-.25,1.2h-4.59Z"/>
      <path class="cls-5" d="M97.37,246.38h-1.71v-.1c.16,0,.28-.03.34-.08.03-.03.04-.07.04-.12.01-.06,0-.13-.04-.22l-.62-1.53h-3.03l-.56,1.41c-.05.14-.08.25-.08.31,0,.06.01.1.04.13.07.07.18.1.34.1v.1h-1.51v-.1c.15-.01.28-.07.38-.18.11-.11.2-.25.27-.41l2.58-6.19h.45l2.68,6.45c.08.14.15.23.22.26.06.03.14.06.22.07v.1ZM93.88,240.55l-1.33,3.28h2.66l-1.33-3.28Z"/>
      <path class="cls-5" d="M101.87,240.47c0-.3-.02-.51-.07-.63-.05-.12-.15-.18-.3-.18h-.15v-.1h1.6v.1h-.15c-.15,0-.26.06-.3.18-.05.12-.07.33-.07.63v3.52c0,.81-.22,1.42-.66,1.86-.44.43-1.07.65-1.88.65s-1.44-.22-1.88-.65c-.44-.44-.66-1.06-.66-1.87v-3.82c0-.19-.02-.32-.07-.39-.05-.07-.14-.11-.29-.11h-.15v-.1h1.87v.1h-.14c-.15,0-.25.04-.3.11-.04.07-.07.2-.07.39v3.84c0,1.34.61,2,1.82,2,.58,0,1.04-.17,1.37-.5.33-.33.49-.79.49-1.38v-3.64Z"/>
      <path class="cls-5" d="M104.97,245.78c0,.19.02.32.07.39.04.07.14.11.3.11h.14v.1h-1.83v-.1h.14c.13,0,.22-.04.27-.11.04-.07.07-.2.07-.39v-5.63c0-.19-.02-.32-.07-.39-.04-.07-.13-.11-.27-.11h-.14v-.1h2.41c.71,0,1.27.15,1.66.46.4.31.59.75.59,1.34,0,.42-.14.78-.43,1.08-.29.3-.72.48-1.3.56.19.17.37.34.52.48.15.15.27.28.37.39.09.11.2.25.31.39.11.15.24.31.37.48.11.15.21.31.3.49.08.18.17.34.25.49.08.15.17.28.27.38.1.1.21.16.35.16v.1h-1.23c-.07-.15-.14-.28-.19-.39-.05-.11-.12-.23-.19-.36-.07-.13-.14-.24-.2-.34-.16-.26-.33-.5-.51-.72-.18-.23-.32-.4-.42-.52-.19-.23-.52-.52-.97-.86h-.62v2.6ZM105.46,242.71c.61,0,1.09-.12,1.44-.36.35-.24.52-.6.52-1.09,0-.42-.14-.73-.42-.93-.28-.2-.7-.3-1.25-.3-.21,0-.38,0-.5.03-.12.02-.21.07-.28.15v2.51h.48Z"/>
      <path class="cls-5" d="M110.62,245.18c.47.54,1.12.82,1.95.82.36,0,.72-.06,1.07-.17.35-.11.65-.28.9-.5l.14.37c-.32.28-.67.49-1.05.61-.38.13-.79.19-1.23.19-1.04,0-1.87-.32-2.49-.96-.62-.64-.93-1.49-.93-2.57s.32-1.88.96-2.55c.64-.66,1.46-1,2.46-1,.38,0,.73.04,1.07.12.17.03.31.07.42.1.11.03.2.06.27.08.05,0,.1-.03.15-.1.05-.06.08-.13.09-.19h.11l.06,1.37v.29s-.1.03-.1.03c-.11-.23-.23-.43-.37-.57-.14-.15-.3-.27-.48-.36-.17-.09-.35-.15-.54-.2-.18-.05-.37-.07-.56-.07-.81,0-1.44.28-1.91.83-.46.56-.69,1.3-.69,2.21s.23,1.68.7,2.21Z"/>
      <path class="cls-5" d="M115.95,239.77c-.04-.07-.14-.11-.3-.11h-.14v-.1h1.84v.1h-.14c-.14,0-.23.04-.28.11-.04.07-.07.2-.07.39v2.48h3.29v-2.48c0-.19-.02-.32-.07-.39-.04-.07-.14-.11-.3-.11h-.14v-.1h1.85v.1h-.14c-.15,0-.24.04-.29.11-.04.07-.07.2-.07.39v5.63c0,.19.02.32.07.39.04.07.14.11.29.11h.14v.1h-1.85v-.1h.14c.15,0,.25-.04.3-.11.04-.07.07-.2.07-.39v-2.64h-3.29v2.64c0,.19.02.32.07.39.04.07.14.11.28.11h.14v.1h-1.84v-.1h.14c.15,0,.25-.04.3-.11.04-.07.07-.2.07-.39v-5.63c0-.19-.02-.32-.07-.39Z"/>
      <path class="cls-5" d="M123.67,246.17c.04.07.15.11.32.11h.16v.1h-1.95v-.1h.16c.17,0,.27-.04.32-.11.04-.07.07-.2.07-.39v-5.63c0-.19-.02-.32-.07-.39-.04-.07-.15-.11-.32-.11h-.16v-.1h1.95v.1h-.16c-.17,0-.27.04-.32.11-.04.07-.07.2-.07.39v5.63c0,.19.02.32.07.39Z"/>
      <path class="cls-5" d="M130.1,240.41c0-.28-.02-.48-.07-.58-.04-.11-.15-.16-.31-.16h-.17v-.1h1.63v.1h-.16c-.15,0-.26.05-.3.16-.05.11-.07.3-.07.58v6.02h-.51l-4.04-5.78v4.9c0,.27.02.46.07.56.05.11.15.16.3.16h.15v.1h-1.62v-.1h.16c.16,0,.27-.05.31-.16.05-.11.07-.3.07-.56v-5.47l-.17-.31c-.03-.05-.07-.09-.11-.1-.04-.01-.09-.02-.15-.02h-.12v-.1h1.33c.63.95,1.26,1.86,1.88,2.75.62.89,1.25,1.8,1.88,2.75v-4.65Z"/>
    </g>
    <path class="cls-5" d="M79.08,245.9l-2.8-1.87c.1-.28.16-.57.17-.88l3.39-.86-5.86.24.23-.14.61-.38,1.48.08c-.14-.4-.36-.77-.65-1.07l3.6-2.64-3.95,2.33c-.06-.05-.13-.1-.2-.14l1.64-4.1-2.94,5.08-.2-.54.57-.82c-.2-.04-.41-.07-.63-.07-.13,0-.27.01-.4.03l-1.58-4.01,1.15,4.09c-.37.11-.71.29-1.01.52l-3.81-3.4,4.85,5.57-.83-.05-.09-.12-.84-1.15c-.21.37-.34.78-.37,1.23l-3.39.21,3.39.13c.02.45.13.87.33,1.24l-2.86,2.78,4.69-3.23-.35.73-.87.5c.32.3.71.52,1.13.66l-1.14,3.39,1.5-3.31c.16.03.33.05.5.05.4,0,.78-.08,1.13-.23l1.84,2.38-1.73-4.06.72.62.12.42c.2-.2.37-.42.5-.67l2.98,1.46Z"/>
  </g>
  <g>
    <g>
      <g>
        <path class="cls-5" d="M316.11,243.03c0-.68.5-1.19,1.19-1.19s1.19.51,1.19,1.19-.5,1.19-1.19,1.19-1.19-.51-1.19-1.19ZM318.38,243.03c0-.62-.45-1.08-1.08-1.08s-1.08.47-1.08,1.08.45,1.08,1.08,1.08,1.08-.46,1.08-1.08Z"/>
        <path class="cls-5" d="M317.3,244.26c-.71,0-1.23-.51-1.23-1.22s.52-1.23,1.23-1.23,1.23.52,1.23,1.23-.52,1.22-1.23,1.22ZM317.3,241.88c-.67,0-1.15.49-1.15,1.15s.48,1.15,1.15,1.15,1.15-.48,1.15-1.15-.48-1.15-1.15-1.15ZM317.3,244.15c-.64,0-1.12-.48-1.12-1.12s.48-1.12,1.12-1.12,1.12.47,1.12,1.12-.47,1.12-1.12,1.12ZM317.3,241.98c-.6,0-1.04.44-1.04,1.05s.44,1.04,1.04,1.04,1.04-.44,1.04-1.04-.44-1.05-1.04-1.05Z"/>
      </g>
      <g>
        <path class="cls-5" d="M320.73,243.44v-1.03h.11v1.02c0,.43.25.69.64.69s.64-.27.64-.69v-1.02h.11v1.03c0,.48-.29.78-.75.78s-.75-.31-.75-.78Z"/>
        <path class="cls-5" d="M321.48,244.26c-.48,0-.79-.32-.79-.82v-1.07h.18v1.06c0,.4.23.65.61.65s.61-.25.61-.65v-1.06h.18v1.07c0,.5-.31.82-.79.82ZM320.77,242.44v1c0,.46.27.74.71.74s.71-.29.71-.74v-1h-.03v.98c0,.45-.26.73-.68.73s-.68-.28-.68-.73v-.98h-.03Z"/>
      </g>
      <g>
        <path class="cls-5" d="M325.5,242.4v.1h-.16c-.37,0-.62.29-.62.68v1h-.11v-1.78h.08l.02.4c.11-.25.33-.41.63-.41h.15Z"/>
        <path class="cls-5" d="M324.76,244.22h-.18v-1.86h.16v.31c.15-.2.36-.31.61-.31h.19v.18h-.2c-.34,0-.58.26-.58.64v1.04ZM324.65,244.15h.03v-.97c0-.42.27-.72.66-.72h.12v-.03h-.12c-.28,0-.49.14-.6.39l-.06.15-.02-.53h0v1.71Z"/>
      </g>
      <g>
        <path class="cls-5" d="M331.86,243.33h-1.66c.02.46.35.79.79.79.31,0,.56-.16.71-.44h.11c-.17.35-.45.54-.82.54-.51,0-.89-.4-.89-.93s.38-.92.89-.92.88.4.88.91c0,.01,0,.03,0,.04ZM330.19,243.23h1.56c-.03-.45-.35-.76-.77-.76s-.76.32-.79.76Z"/>
        <path class="cls-5" d="M330.98,244.26c-.53,0-.93-.41-.93-.96s.4-.96.93-.96.91.41.91.95c0,.01,0,.03,0,.05v.04h-1.66c.03.42.34.71.75.71.29,0,.53-.15.67-.42v-.02h.2l-.03.05c-.17.36-.48.56-.85.56ZM330.98,242.41c-.49,0-.86.38-.86.89s.37.89.86.89c.33,0,.59-.16.76-.47h-.03c-.15.28-.42.44-.73.44-.46,0-.81-.35-.83-.83v-.04s1.66,0,1.66,0h0c0-.51-.36-.88-.84-.88ZM331.79,243.26h-1.64v-.04c.03-.46.38-.79.83-.79s.78.33.81.79v.04ZM330.24,243.19h1.48c-.04-.4-.34-.68-.73-.68s-.7.28-.75.68Z"/>
      </g>
      <g>
        <path class="cls-5" d="M336.64,243.06v1.12h-.1v-1.1c0-.37-.2-.62-.51-.62-.35,0-.6.27-.6.68v1.04h-.1v-1.1c0-.38-.2-.62-.51-.62-.35,0-.6.27-.6.68v1.04h-.11v-1.78h.08l.02.36c.11-.25.34-.4.62-.4s.49.18.57.46c.1-.28.34-.46.65-.46.36,0,.6.28.6.69Z"/>
        <path class="cls-5" d="M336.68,244.22h-.18v-1.14c0-.35-.19-.58-.47-.58-.34,0-.56.26-.56.64v1.08h-.18v-1.14c0-.36-.18-.58-.47-.58-.34,0-.56.26-.56.64v1.08h-.18v-1.86h.16v.27c.14-.19.36-.3.6-.3.27,0,.47.14.57.39.12-.24.36-.39.64-.39.38,0,.64.29.64.73v1.16ZM336.57,244.15h.03v-1.09c0-.39-.23-.65-.56-.65-.29,0-.51.16-.61.43l-.04.11-.03-.12c-.07-.27-.27-.43-.53-.43s-.48.14-.59.38l-.06.14-.02-.48h-.01v1.71h.03v-1c0-.42.27-.71.64-.71.33,0,.55.26.55.65v1.06h.03v-1c0-.42.27-.71.64-.71.33,0,.55.26.55.65v1.06Z"/>
      </g>
      <g>
        <path class="cls-5" d="M340.85,243.29c0,.53-.38.92-.9.92-.36,0-.66-.2-.81-.5v1.09h-.11v-2.41h.08l.02.47c.15-.3.45-.5.81-.5.53,0,.9.4.9.92ZM340.74,243.29c0-.47-.34-.82-.8-.82s-.81.35-.81.82.35.82.81.82.8-.35.8-.82Z"/>
        <path class="cls-5" d="M339.17,244.85h-.18v-2.48h.15l.02.37c.17-.25.46-.41.78-.41.55,0,.94.4.94.96s-.4.96-.94.96c-.32,0-.6-.15-.77-.39v.99ZM339.07,244.78h.03v-1.21l.07.14c.15.3.44.47.78.47.5,0,.87-.37.87-.89s-.36-.89-.87-.89c-.34,0-.63.18-.78.48l-.06.13-.03-.58h0v2.33ZM339.94,244.15c-.48,0-.84-.37-.84-.86s.36-.86.84-.86.84.36.84.86-.35.86-.84.86ZM339.94,242.51c-.44,0-.77.34-.77.78s.33.78.77.78.77-.33.77-.78-.32-.78-.77-.78Z"/>
      </g>
      <g>
        <path class="cls-5" d="M343.96,244.08v.1h-.23c-.33,0-.53-.2-.53-.54v-1.14h-.41v-.09h.41v-.53h.11v.53h.65v.09h-.65v1.14c0,.28.16.45.44.45h.22Z"/>
        <path class="cls-5" d="M344,244.22h-.27c-.35,0-.57-.22-.57-.58v-1.11h-.41v-.17h.41v-.53h.18v.53h.65v.17h-.65v1.1c0,.26.14.41.4.41h.26v.18ZM342.82,242.46h.41v1.18c0,.32.19.5.5.5h.2v-.03h-.19c-.3,0-.47-.18-.47-.48v-1.18h.65v-.02h-.65v-.53h-.03v.53h-.41v.02Z"/>
      </g>
      <g>
        <path class="cls-5" d="M346.08,241.82h.16v.18h-.16v-.18ZM346.1,242.4h.11v1.78h-.11v-1.78Z"/>
        <path class="cls-5" d="M346.25,244.22h-.18v-1.86h.18v1.86ZM346.14,244.15h.03v-1.71h-.03v1.71ZM346.27,242.04h-.23v-.26h.23v.26ZM346.12,241.97h.08v-.11h-.08v.11Z"/>
      </g>
      <g>
        <path class="cls-5" d="M350.13,243.13v1.05h-.11v-1.04c0-.42-.23-.68-.61-.68s-.67.31-.67.68v1.04h-.11v-1.78h.08l.02.41c.12-.26.39-.45.7-.45.43,0,.7.3.7.76Z"/>
        <path class="cls-5" d="M350.16,244.22h-.18v-1.07c0-.4-.21-.64-.58-.64s-.64.29-.64.64v1.07h-.18v-1.86h.16v.32c.16-.22.41-.35.68-.35.45,0,.74.31.74.8v1.09ZM350.06,244.15h.03v-1.02c0-.44-.26-.72-.66-.72-.28,0-.54.17-.66.42l-.06.14-.02-.53h0v1.71h.03v-1c0-.39.33-.72.71-.72s.65.28.65.72v1Z"/>
      </g>
      <g>
        <path class="cls-5" d="M354.12,243.33h-1.66c.02.46.35.79.79.79.31,0,.56-.16.71-.44h.11c-.17.35-.45.54-.82.54-.51,0-.89-.4-.89-.93s.38-.92.89-.92.88.4.88.91c0,.01,0,.03,0,.04ZM352.46,243.23h1.56c-.03-.45-.35-.76-.77-.76s-.76.32-.79.76Z"/>
        <path class="cls-5" d="M353.25,244.26c-.53,0-.93-.41-.93-.96s.4-.96.93-.96.91.41.91.95c0,.01,0,.03,0,.05v.04h-1.66c.03.42.34.71.75.71.3,0,.53-.15.67-.42v-.02h.2l-.03.05c-.17.36-.48.56-.85.56ZM353.25,242.41c-.49,0-.86.38-.86.89s.37.89.86.89c.33,0,.59-.16.76-.47h-.03c-.15.28-.42.44-.73.44-.46,0-.81-.35-.83-.83v-.04s1.66,0,1.66,0h0c0-.51-.36-.88-.84-.88ZM354.06,243.26h-1.64v-.04c.03-.46.38-.79.83-.79s.78.33.81.79v.04ZM352.5,243.19h1.48c-.04-.4-.34-.68-.73-.68s-.7.28-.75.68Z"/>
      </g>
      <g>
        <path class="cls-5" d="M356.21,243.7h.1c.03.27.24.42.58.42s.56-.16.56-.41c0-.31-.29-.36-.58-.41-.31-.05-.63-.11-.63-.46,0-.28.26-.47.63-.47s.62.19.64.5h-.1c-.02-.25-.21-.4-.54-.4s-.53.15-.53.37c0,.27.26.31.55.36.31.05.66.12.66.51,0,.31-.27.51-.67.51s-.65-.2-.68-.52Z"/>
        <path class="cls-5" d="M356.88,244.26c-.42,0-.69-.21-.72-.55v-.04s.18,0,.18,0v.03c.03.25.23.39.54.39s.53-.14.53-.37c0-.26-.23-.32-.55-.38-.31-.05-.66-.11-.66-.49,0-.31.27-.51.67-.51s.66.2.67.53v.04s-.17,0-.17,0v-.03c-.02-.23-.2-.37-.5-.37s-.49.14-.49.34c0,.22.2.27.51.32.3.05.7.12.7.55,0,.33-.29.55-.71.55ZM356.25,243.74c.04.28.28.44.64.44.39,0,.63-.19.63-.47,0-.37-.34-.42-.63-.47-.3-.05-.58-.1-.58-.4,0-.25.23-.41.56-.41s.54.15.57.4h.03c-.03-.27-.25-.42-.6-.42s-.59.18-.59.44c0,.32.29.37.6.42.29.05.61.1.61.45,0,.27-.24.44-.6.44-.34,0-.57-.16-.61-.42h-.03Z"/>
      </g>
      <g>
        <path class="cls-5" d="M359.65,243.7h.1c.03.27.24.42.58.42s.56-.16.56-.41c0-.31-.29-.36-.58-.41-.31-.05-.63-.11-.63-.46,0-.28.26-.47.63-.47s.62.19.64.5h-.1c-.02-.25-.21-.4-.54-.4s-.53.15-.53.37c0,.27.26.31.55.36.31.05.66.12.66.51,0,.31-.27.51-.67.51s-.65-.2-.68-.52Z"/>
        <path class="cls-5" d="M360.32,244.26c-.42,0-.69-.21-.72-.55v-.04s.18,0,.18,0v.03c.03.25.23.39.54.39s.53-.14.53-.37c0-.26-.23-.32-.55-.38-.31-.05-.66-.11-.66-.49,0-.31.27-.51.67-.51s.66.2.67.53v.04s-.17,0-.17,0v-.03c-.02-.23-.2-.37-.5-.37s-.49.14-.49.34c0,.22.2.27.51.32.3.05.7.12.7.55,0,.33-.29.55-.71.55ZM359.69,243.74c.04.28.28.44.64.44.39,0,.63-.19.63-.47,0-.37-.34-.42-.63-.47-.3-.05-.58-.1-.58-.4,0-.25.23-.41.56-.41s.54.15.57.4h.03c-.03-.27-.25-.42-.6-.42s-.59.18-.59.44c0,.32.29.37.6.42.29.05.61.1.61.45,0,.27-.24.44-.6.44-.34,0-.57-.16-.61-.42h-.03Z"/>
      </g>
      <g>
        <path class="cls-5" d="M366.75,242.5h-.63v1.68h-.11v-1.68h-.39v-.09h.39v-.14c0-.41.16-.57.58-.57h.16v.09h-.15c-.36,0-.49.12-.49.48v.14h.64v.09Z"/>
        <path class="cls-5" d="M366.15,244.22h-.18v-1.68h-.39v-.17h.39v-.1c0-.43.18-.61.61-.61h.2v.17h-.19c-.34,0-.45.1-.45.45v.1h.64v.17h-.63v1.68ZM366.05,244.15h.03v-1.68h.63v-.02h-.64v-.18c0-.38.14-.52.52-.52h.11v-.02h-.12c-.4,0-.54.14-.54.53v.18h-.39v.02h.39v1.68Z"/>
      </g>
      <g>
        <path class="cls-5" d="M368.65,243.29c0-.53.4-.92.93-.92s.93.4.93.92-.4.92-.93.92-.93-.4-.93-.92ZM370.39,243.29c0-.47-.35-.82-.82-.82s-.82.35-.82.82.35.82.82.82.82-.35.82-.82Z"/>
        <path class="cls-5" d="M369.57,244.26c-.55,0-.96-.41-.96-.96s.41-.96.96-.96.96.41.96.96-.41.96-.96.96ZM369.57,242.41c-.51,0-.89.38-.89.89s.38.89.89.89.89-.38.89-.89-.38-.89-.89-.89ZM369.57,244.15c-.49,0-.86-.37-.86-.86s.37-.86.86-.86.86.37.86.86-.37.86-.86.86ZM369.57,242.51c-.45,0-.78.33-.78.78s.34.78.78.78.78-.34.78-.78-.34-.78-.78-.78Z"/>
      </g>
      <g>
        <path class="cls-5" d="M373.65,242.4v.1h-.16c-.37,0-.62.29-.62.68v1h-.11v-1.78h.08l.02.4c.11-.25.33-.41.63-.41h.15Z"/>
        <path class="cls-5" d="M372.9,244.22h-.18v-1.86h.16v.31c.15-.2.36-.31.61-.31h.19v.18h-.2c-.34,0-.58.26-.58.64v1.04ZM372.8,244.15h.03v-.97c0-.42.27-.72.66-.72h.12v-.03h-.12c-.28,0-.49.14-.6.39l-.06.15-.02-.53h0v1.71Z"/>
      </g>
      <g>
        <path class="cls-5" d="M379.78,242.4l-.91,1.94c-.17.37-.33.47-.61.47h-.14v-.1h.13c.24,0,.37-.08.52-.4l.11-.23-.83-1.68h.12l.77,1.56.73-1.56h.11Z"/>
        <path class="cls-5" d="M378.26,244.85h-.18v-.17h.17c.22,0,.33-.05.49-.38l.1-.21-.85-1.72h.2l.75,1.51.7-1.51h.2l-.02.05-.91,1.94c-.17.37-.33.49-.64.49ZM378.16,244.78h.1c.28,0,.42-.11.58-.45l.88-1.88h-.03l-.75,1.61-.79-1.61h-.03l.81,1.64-.12.24c-.15.33-.28.42-.55.42h-.1v.02Z"/>
      </g>
      <g>
        <path class="cls-5" d="M381.75,243.29c0-.53.4-.92.93-.92s.93.4.93.92-.4.92-.93.92-.93-.4-.93-.92ZM383.49,243.29c0-.47-.35-.82-.82-.82s-.82.35-.82.82.35.82.82.82.82-.35.82-.82Z"/>
        <path class="cls-5" d="M382.67,244.26c-.55,0-.96-.41-.96-.96s.41-.96.96-.96.96.41.96.96-.41.96-.96.96ZM382.67,242.41c-.51,0-.89.38-.89.89s.38.89.89.89.89-.38.89-.89-.38-.89-.89-.89ZM382.67,244.15c-.49,0-.86-.37-.86-.86s.37-.86.86-.86.86.37.86.86-.37.86-.86.86ZM382.67,242.51c-.45,0-.78.33-.78.78s.34.78.78.78.78-.34.78-.78-.34-.78-.78-.78Z"/>
      </g>
      <g>
        <path class="cls-5" d="M385.83,243.44v-1.03h.11v1.02c0,.43.25.69.64.69s.64-.27.64-.69v-1.02h.11v1.03c0,.48-.29.78-.75.78s-.75-.31-.75-.78Z"/>
        <path class="cls-5" d="M386.58,244.26c-.48,0-.79-.32-.79-.82v-1.07h.18v1.06c0,.4.23.65.61.65s.61-.25.61-.65v-1.06h.18v1.07c0,.5-.31.82-.79.82ZM385.87,242.44v1c0,.46.27.74.71.74s.71-.29.71-.74v-1h-.03v.98c0,.45-.26.73-.68.73s-.68-.28-.68-.73v-.98h-.03Z"/>
      </g>
    </g>
    <g>
      <path class="cls-5" d="M318.98,232.05c.43,0,.77.11,1.03.33.26.22.39.52.39.89h1.5c0-.58-.28-1.07-.83-1.47-.56-.41-1.26-.61-2.08-.61s-1.52.2-2.08.61c-.55.4-.83.89-.83,1.47,0,.47.43.95,1.28,1.45.5.29,1.03.53,1.57.72.98.37,1.47.77,1.47,1.21,0,.37-.12.66-.35.86-.24.23-.6.34-1.06.34s-.79-.09-1.03-.28c-.26-.2-.39-.48-.39-.85h-1.49c0,.58.28,1.05.83,1.43.56.38,1.25.57,2.08.57s1.52-.2,2.08-.61c.55-.4.83-.89.83-1.47,0-.48-.44-.97-1.31-1.46-.5-.29-1.01-.52-1.54-.7-.33-.09-.63-.24-.92-.45-.37-.25-.56-.51-.56-.76,0-.37.12-.66.35-.86.25-.23.6-.35,1.07-.35Z"/>
      <path class="cls-5" d="M329.67,235.99c-.2.55-.49.99-.88,1.32-.41.34-.89.51-1.42.51-.62,0-1.14-.24-1.55-.71-.37-.42-.64-1-.79-1.75h6.27c.09-.1.14-.24.14-.41,0-1.04-.4-1.93-1.19-2.66-.8-.73-1.76-1.1-2.88-1.1s-2.08.37-2.88,1.1c-.79.74-1.19,1.63-1.19,2.66s.4,1.93,1.19,2.66c.8.73,1.76,1.1,2.88,1.1.92,0,1.74-.26,2.47-.77.71-.5,1.2-1.15,1.45-1.95h-1.6ZM325.83,232.79c.4-.47.91-.71,1.54-.71s1.19.24,1.65.71c.45.46.71,1.04.81,1.75h-4.68c.09-.73.32-1.31.69-1.75Z"/>
      <path class="cls-5" d="M348.41,234.94c0,.85-.16,1.53-.47,2.03-.35.56-.86.84-1.55.84s-1.2-.28-1.55-.84c-.31-.5-.46-1.18-.46-2.03v-3.76h-1.47v3.76c0,1.08.3,1.97.9,2.66.63.73,1.5,1.1,2.59,1.1.78,0,1.46-.2,2.02-.59v.59h2.17v-.82h-.7v-5.88h.7v-.82h-2.17v3.76Z"/>
      <path class="cls-5" d="M354.08,231.19h-2.05v.83h.7v5.86h-.7v.82h2.05v-3.76c0-.8.24-1.47.71-2.02.48-.56,1.07-.84,1.78-.84l.11-.9c-.98,0-1.85.29-2.6.87v-.86Z"/>
      <path class="cls-5" d="M360.97,232.08c1.1,0,1.87.61,2.3,1.82h1.6c-.25-.79-.73-1.44-1.44-1.95-.73-.51-1.55-.77-2.47-.77-1.12,0-2.08.37-2.87,1.1-.79.73-1.19,1.62-1.19,2.66s.4,1.92,1.19,2.66c.79.73,1.75,1.1,2.87,1.1.92,0,1.74-.26,2.47-.77.71-.5,1.19-1.15,1.44-1.94h-1.6c-.43,1.21-1.2,1.82-2.3,1.82-.7,0-1.28-.28-1.72-.84-.43-.54-.65-1.22-.65-2.02s.22-1.49.65-2.03c.44-.56,1.02-.84,1.72-.84Z"/>
      <path class="cls-5" d="M370.69,231.18c-.86,0-1.61.23-2.25.7v-3.25h-2.06v.82h.7v8.44h-.7v.82h2.06v-3.77c0-.82.19-1.5.58-2.03.42-.56.97-.84,1.66-.84s1.26.28,1.67.84c.4.53.6,1.21.6,2.03v3.77h1.46v-3.77c0-1.06-.34-1.95-1.02-2.66-.7-.73-1.6-1.1-2.71-1.1Z"/>
      <path class="cls-5" d="M377.15,228.66c-.2,0-.37.07-.52.2-.14.13-.22.29-.22.48s.07.35.22.48c.14.13.32.2.52.2s.38-.07.52-.2c.14-.13.21-.29.21-.48s-.07-.35-.21-.48c-.14-.13-.32-.2-.52-.2Z"/>
      <polygon class="cls-5" points="375.84 232.02 376.54 232.02 376.54 237.89 375.84 237.89 375.84 238.71 377.88 238.71 377.88 231.2 375.84 231.2 375.84 232.02"/>
      <path class="cls-5" d="M386.35,232.28c-.7-.73-1.6-1.1-2.7-1.1-.86,0-1.61.23-2.25.7v-.7h-2.06v.82h.7v5.88h-.7v.82h2.06v-3.76c0-.82.19-1.5.58-2.03.42-.56.97-.84,1.67-.84s1.25.28,1.67.84c.39.53.58,1.21.58,2.03v3.76h1.47v-3.76c0-1.07-.34-1.95-1.01-2.66Z"/>
      <path class="cls-5" d="M342.99,238.02l-2.16-1.66v-4.33h.7v-.83h-2.06v.87c-.18-.14-.36-.26-.55-.36l1.52-2.69-2.12,2.42c-.44-.15-.91-.24-1.4-.24l-.45-2.28-.08,2.3c-.56.06-1.08.22-1.55.47l-3.71-3.61,2.72,4.38c-.68.7-1.03,1.53-1.03,2.49,0,.72.2,1.37.58,1.94l-2.41,2.34,2.67-2c.11.13.23.25.36.37.78.73,1.74,1.1,2.85,1.1l.08,2.26.21-2.26c.87-.05,1.64-.33,2.32-.86v.87h2.06v-.82h-.7v-.85l2.16.98ZM338.71,236.98c-.42.47-.92.73-1.49.81l.14-1.51-.6-.02.05,1.56c-.69-.01-1.29-.29-1.78-.84-.14-.16-.27-.33-.37-.52l1.75-1.31-.56-.66-1.43,1.4c-.09-.29-.14-.6-.14-.94,0-.79.25-1.46.75-2.02.38-.42.82-.68,1.32-.78l-.02.57.86-.07-.11-.55c.62.05,1.16.32,1.62.82.5.56.75,1.23.75,2.02s-.25,1.47-.75,2.03Z"/>
    </g>
  </g>
  <g>
    <g>
      <g>
        <path class="cls-5" d="M897.89,252.81c0-.52.38-.91.91-.91s.91.39.91.91-.38.91-.91.91-.91-.39-.91-.91ZM899.62,252.81c0-.47-.34-.83-.83-.83s-.83.36-.83.83.34.83.83.83.83-.35.83-.83Z"/>
        <path class="cls-5" d="M898.8,253.74c-.54,0-.94-.39-.94-.94s.39-.94.94-.94.94.39.94.94-.39.94-.94.94ZM898.8,251.92c-.51,0-.88.37-.88.88s.37.88.88.88.88-.37.88-.88-.37-.88-.88-.88ZM898.8,253.66c-.49,0-.85-.37-.85-.85s.37-.86.85-.86.85.36.85.86-.36.85-.85.85ZM898.8,252.01c-.46,0-.8.34-.8.8s.34.8.8.8.8-.34.8-.8-.34-.8-.8-.8Z"/>
      </g>
      <g>
        <path class="cls-5" d="M901.42,253.12v-.79h.08v.78c0,.33.19.53.49.53s.49-.2.49-.53v-.78h.08v.79c0,.36-.22.6-.57.6s-.57-.23-.57-.6Z"/>
        <path class="cls-5" d="M901.99,253.74c-.37,0-.6-.25-.6-.63v-.82h.14v.81c0,.31.18.5.46.5s.46-.19.46-.5v-.81h.14v.82c0,.38-.24.63-.6.63ZM901.45,252.35v.76c0,.35.21.57.54.57s.54-.22.54-.57v-.76h-.02v.75c0,.34-.2.56-.52.56s-.52-.21-.52-.56v-.75h-.02Z"/>
      </g>
      <g>
        <path class="cls-5" d="M905.07,252.32v.08h-.12c-.28,0-.47.22-.47.52v.77h-.08v-1.36h.06v.31c.1-.19.27-.31.5-.31h.12Z"/>
        <path class="cls-5" d="M904.5,253.71h-.14v-1.42h.12v.23c.11-.15.27-.24.47-.24h.15v.13h-.15c-.26,0-.45.2-.45.49v.79ZM904.42,253.66h.02v-.74c0-.32.21-.55.5-.55h.09v-.02h-.09c-.21,0-.37.1-.46.3l-.05.11-.02-.4h0v1.3Z"/>
      </g>
      <g>
        <path class="cls-5" d="M909.92,253.03h-1.27c.01.35.27.6.6.6.24,0,.43-.12.54-.34h.09c-.13.27-.35.41-.63.41-.39,0-.68-.3-.68-.71s.29-.7.68-.7.67.3.67.7c0,.01,0,.02,0,.03ZM908.65,252.95h1.19c-.02-.34-.27-.58-.59-.58s-.58.24-.6.58Z"/>
        <path class="cls-5" d="M909.26,253.74c-.41,0-.71-.32-.71-.74s.31-.73.71-.73.7.31.7.73c0,.01,0,.02,0,.04v.03h-1.27c.02.32.26.55.57.55.23,0,.41-.11.52-.32v-.02h.16l-.02.04c-.13.28-.36.43-.65.43ZM909.26,252.33c-.37,0-.65.29-.65.68s.28.68.65.68c.25,0,.45-.12.58-.36h-.02c-.12.21-.32.34-.56.34-.35,0-.62-.27-.63-.63v-.03s1.27,0,1.27,0h0c0-.39-.28-.67-.64-.67ZM909.88,252.98h-1.25v-.03c.03-.35.29-.6.63-.6s.6.25.62.6v.03ZM908.69,252.93h1.13c-.03-.31-.26-.52-.56-.52s-.54.22-.57.52Z"/>
      </g>
      <g>
        <path class="cls-5" d="M913.58,252.83v.86h-.08v-.84c0-.28-.16-.47-.39-.47-.27,0-.46.21-.46.52v.8h-.08v-.84c0-.29-.15-.47-.39-.47-.27,0-.46.21-.46.52v.8h-.08v-1.36h.06v.28c.1-.19.27-.3.49-.3s.38.13.43.35c.08-.21.26-.35.49-.35.27,0,.46.21.46.53Z"/>
        <path class="cls-5" d="M913.61,253.71h-.14v-.87c0-.27-.14-.44-.36-.44-.26,0-.43.2-.43.49v.82h-.14v-.87c0-.27-.14-.44-.36-.44-.26,0-.43.2-.43.49v.82h-.14v-1.42h.12v.21c.11-.15.27-.23.46-.23.2,0,.36.11.44.3.09-.19.27-.3.49-.3.29,0,.49.22.49.56v.89ZM913.53,253.66h.02v-.83c0-.3-.17-.5-.43-.5-.22,0-.39.12-.47.33l-.03.09-.02-.09c-.05-.2-.21-.33-.41-.33s-.37.1-.45.29l-.05.11-.02-.37h0v1.3h.02v-.77c0-.32.2-.54.49-.54.25,0,.42.2.42.5v.81h.02v-.77c0-.32.2-.54.49-.54.25,0,.42.2.42.5v.81Z"/>
      </g>
      <g>
        <path class="cls-5" d="M916.8,253.01c0,.4-.29.71-.69.71-.28,0-.51-.15-.62-.38v.83h-.08v-1.84h.06l.02.36c.11-.23.34-.38.62-.38.4,0,.69.3.69.71ZM916.71,253.01c0-.36-.26-.63-.61-.63s-.62.27-.62.63.27.63.62.63.61-.27.61-.63Z"/>
        <path class="cls-5" d="M915.51,254.2h-.14v-1.9h.12v.29c.14-.19.36-.31.61-.31.42,0,.72.31.72.74s-.3.74-.72.74c-.24,0-.46-.11-.59-.3v.76ZM915.43,254.14h.02v-.93l.05.11c.11.23.33.36.59.36.38,0,.66-.29.66-.68s-.28-.68-.66-.68c-.26,0-.48.14-.6.37l-.05.1-.02-.44h0v1.78ZM916.1,253.66c-.37,0-.65-.28-.65-.66s.28-.66.65-.66.64.28.64.66-.27.66-.64.66ZM916.1,252.41c-.34,0-.59.26-.59.6s.25.6.59.6.59-.25.59-.6-.25-.6-.59-.6Z"/>
      </g>
      <g>
        <path class="cls-5" d="M919.17,253.61v.08h-.18c-.25,0-.41-.16-.41-.41v-.87h-.31v-.07h.31v-.4h.08v.4h.49v.07h-.49v.87c0,.21.12.34.33.34h.17Z"/>
        <path class="cls-5" d="M919.2,253.72h-.21c-.27,0-.44-.17-.44-.44v-.85h-.31v-.13h.31v-.4h.14v.4h.49v.13h-.49v.84c0,.2.11.31.31.31h.2v.13ZM918.3,252.37h.31v.9c0,.24.14.39.38.39h.15v-.02h-.14c-.23,0-.36-.14-.36-.37v-.9h.49s-.49-.01-.49-.01v-.4h-.02v.4h-.31Z"/>
      </g>
      <g>
        <path class="cls-5" d="M920.79,251.88h.12v.14h-.12v-.14ZM920.81,252.33h.08v1.36h-.08v-1.36Z"/>
        <path class="cls-5" d="M920.92,253.71h-.14v-1.42h.14v1.42ZM920.84,253.66h.02v-1.3h-.02v1.3ZM920.94,252.05h-.18v-.2h.18v.2ZM920.82,251.99h.06v-.08h-.06v.08Z"/>
      </g>
      <g>
        <path class="cls-5" d="M923.89,252.88v.81h-.08v-.79c0-.32-.18-.52-.47-.52s-.52.24-.52.52v.79h-.08v-1.36h.06v.31c.11-.2.31-.34.55-.34.33,0,.53.23.53.58Z"/>
        <path class="cls-5" d="M923.92,253.71h-.14v-.82c0-.31-.16-.49-.44-.49s-.49.22-.49.49v.82h-.14v-1.42h.12v.24c.12-.17.32-.27.52-.27.34,0,.56.24.56.61v.83ZM923.83,253.66h.02v-.78c0-.34-.2-.55-.5-.55-.22,0-.42.13-.51.32l-.05.11-.02-.4h0v1.3h.02v-.76c0-.3.25-.55.54-.55s.5.21.5.55v.76Z"/>
      </g>
      <g>
        <path class="cls-5" d="M926.94,253.03h-1.27c.01.35.27.6.6.6.24,0,.43-.12.54-.34h.09c-.13.27-.35.41-.63.41-.39,0-.68-.3-.68-.71s.29-.7.68-.7.67.3.67.7c0,.01,0,.02,0,.03ZM925.67,252.95h1.19c-.02-.34-.27-.58-.59-.58s-.58.24-.6.58Z"/>
        <path class="cls-5" d="M926.27,253.74c-.41,0-.71-.32-.71-.74s.31-.73.71-.73.7.31.7.73c0,.01,0,.02,0,.04v.03h-1.27c.02.32.26.55.57.55.23,0,.41-.11.51-.32v-.02h.16l-.02.04c-.13.28-.36.43-.65.43ZM926.27,252.33c-.37,0-.65.29-.65.68s.28.68.65.68c.25,0,.45-.12.58-.36h-.02c-.12.21-.32.34-.56.34-.35,0-.62-.27-.63-.63v-.03s1.27,0,1.27,0h0c0-.39-.28-.67-.64-.67ZM926.89,252.98h-1.25v-.03c.03-.35.29-.6.63-.6s.6.25.62.6v.03ZM925.7,252.93h1.13c-.03-.31-.26-.52-.56-.52s-.54.22-.57.52Z"/>
      </g>
      <g>
        <path class="cls-5" d="M928.53,253.32h.08c.02.2.18.32.44.32s.43-.12.43-.31c0-.24-.22-.28-.45-.31-.24-.04-.48-.08-.48-.35,0-.22.2-.36.48-.36s.47.15.49.38h-.08c-.01-.19-.16-.31-.41-.31s-.4.11-.4.29c0,.2.2.24.42.27.24.04.51.09.51.39,0,.23-.21.39-.51.39s-.5-.15-.52-.4Z"/>
        <path class="cls-5" d="M929.05,253.74c-.32,0-.52-.16-.55-.42v-.03s.13,0,.13,0v.03c.02.19.17.3.42.3s.4-.11.4-.28c0-.2-.17-.25-.42-.29-.24-.04-.5-.09-.5-.38,0-.23.21-.39.51-.39s.5.16.51.41v.03s-.13,0-.13,0v-.03c-.01-.18-.15-.28-.38-.28s-.37.1-.37.26c0,.17.15.2.39.25.23.04.53.09.53.42,0,.25-.22.42-.54.42ZM928.56,253.34c.03.21.21.34.49.34.29,0,.48-.14.48-.36,0-.28-.26-.32-.48-.36-.23-.04-.44-.07-.44-.3,0-.19.17-.31.43-.31s.41.11.44.31h.02c-.03-.2-.19-.32-.45-.32s-.45.13-.45.33c0,.24.22.28.46.32.22.04.47.08.47.34,0,.2-.18.34-.46.34-.26,0-.43-.12-.47-.32h-.02Z"/>
      </g>
      <g>
        <path class="cls-5" d="M931.16,253.32h.08c.02.2.18.32.44.32s.43-.12.43-.31c0-.24-.22-.28-.45-.31-.24-.04-.48-.08-.48-.35,0-.22.2-.36.48-.36s.47.15.49.38h-.08c-.01-.19-.16-.31-.41-.31s-.4.11-.4.29c0,.2.2.24.42.27.24.04.51.09.51.39,0,.23-.21.39-.51.39s-.5-.15-.52-.4Z"/>
        <path class="cls-5" d="M931.68,253.74c-.32,0-.52-.16-.55-.42v-.03s.13,0,.13,0v.03c.02.19.17.3.42.3s.4-.11.4-.28c0-.2-.17-.25-.42-.29-.24-.04-.5-.09-.5-.38,0-.23.21-.39.51-.39s.5.16.51.41v.03s-.13,0-.13,0v-.03c-.01-.18-.15-.28-.38-.28s-.37.1-.37.26c0,.17.15.2.39.25.23.04.53.09.53.42,0,.25-.22.42-.54.42ZM931.19,253.34c.03.21.21.34.49.34.29,0,.48-.14.48-.36,0-.28-.26-.32-.48-.36-.23-.04-.44-.07-.44-.3,0-.19.17-.31.43-.31s.41.11.44.31h.02c-.03-.2-.19-.32-.45-.32s-.45.13-.45.33c0,.24.22.28.46.32.22.04.47.08.47.34,0,.2-.18.34-.46.34-.26,0-.43-.12-.47-.32h-.02Z"/>
      </g>
      <g>
        <path class="cls-5" d="M936.59,252.4h-.48v1.29h-.08v-1.29h-.29v-.07h.29v-.11c0-.32.12-.44.44-.44h.12v.07h-.11c-.28,0-.37.09-.37.37v.11h.49v.07Z"/>
        <path class="cls-5" d="M936.13,253.71h-.14v-1.29h-.29v-.13h.29v-.08c0-.33.14-.47.47-.47h.15v.13h-.14c-.26,0-.34.08-.34.34v.08h.49v.13h-.48v1.29ZM936.05,253.66h.02v-1.29h.48s-.49-.01-.49-.01v-.13c0-.29.11-.4.4-.4h.08s-.1-.01-.1-.01c-.3,0-.41.11-.41.41v.14h-.29s.29.01.29.01v1.29Z"/>
      </g>
      <g>
        <path class="cls-5" d="M938.04,253.01c0-.41.3-.71.71-.71s.71.3.71.71-.3.71-.71.71-.71-.3-.71-.71ZM939.37,253.01c0-.36-.27-.63-.63-.63s-.63.27-.63.63.27.63.63.63.63-.27.63-.63Z"/>
        <path class="cls-5" d="M938.75,253.74c-.42,0-.74-.32-.74-.74s.32-.74.74-.74.74.32.74.74-.32.74-.74.74ZM938.75,252.33c-.39,0-.68.29-.68.68s.29.68.68.68.68-.29.68-.68-.29-.68-.68-.68ZM938.75,253.66c-.37,0-.65-.28-.65-.66s.28-.66.65-.66.65.28.65.66-.28.66-.65.66ZM938.75,252.41c-.35,0-.6.25-.6.6s.26.6.6.6.6-.26.6-.6-.26-.6-.6-.6Z"/>
      </g>
      <g>
        <path class="cls-5" d="M941.86,252.32v.08h-.12c-.28,0-.47.22-.47.52v.77h-.08v-1.36h.06v.31c.1-.19.27-.31.5-.31h.12Z"/>
        <path class="cls-5" d="M941.29,253.71h-.14v-1.42h.12v.23c.11-.15.27-.24.47-.24h.15v.13h-.15c-.26,0-.45.2-.45.49v.79ZM941.21,253.66h.02v-.74c0-.32.21-.55.5-.55h.09v-.02h-.09c-.21,0-.37.1-.46.3l-.05.11-.02-.4h0v1.3Z"/>
      </g>
      <g>
        <path class="cls-5" d="M946.55,252.33l-.69,1.48c-.13.28-.25.36-.47.36h-.11v-.07h.1c.19,0,.28-.06.4-.31l.08-.17-.64-1.29h.09l.59,1.19.56-1.19h.09Z"/>
        <path class="cls-5" d="M945.39,254.2h-.14v-.13h.13c.17,0,.25-.04.37-.29l.08-.16-.65-1.31h.15l.57,1.16.54-1.16h.15l-.02.04-.69,1.48c-.13.28-.26.38-.49.38ZM945.31,254.14h.08c.21,0,.32-.08.44-.34l.67-1.44h-.02l-.57,1.23-.61-1.23h-.03l.62,1.26-.09.19c-.12.25-.22.32-.42.32h-.07v.02Z"/>
      </g>
      <g>
        <path class="cls-5" d="M948.05,253.01c0-.41.3-.71.71-.71s.71.3.71.71-.3.71-.71.71-.71-.3-.71-.71ZM949.39,253.01c0-.36-.27-.63-.63-.63s-.63.27-.63.63.27.63.63.63.63-.27.63-.63Z"/>
        <path class="cls-5" d="M948.76,253.74c-.42,0-.74-.32-.74-.74s.32-.74.74-.74.74.32.74.74-.32.74-.74.74ZM948.76,252.33c-.39,0-.68.29-.68.68s.29.68.68.68.68-.29.68-.68-.29-.68-.68-.68ZM948.76,253.66c-.37,0-.65-.28-.65-.66s.28-.66.65-.66.65.28.65.66-.28.66-.65.66ZM948.76,252.41c-.35,0-.6.25-.6.6s.26.6.6.6.6-.26.6-.6-.26-.6-.6-.6Z"/>
      </g>
      <g>
        <path class="cls-5" d="M951.17,253.12v-.79h.08v.78c0,.33.19.53.49.53s.49-.2.49-.53v-.78h.08v.79c0,.36-.22.6-.57.6s-.57-.23-.57-.6Z"/>
        <path class="cls-5" d="M951.74,253.74c-.37,0-.6-.25-.6-.63v-.82h.14v.81c0,.31.18.5.46.5s.46-.19.46-.5v-.81h.14v.82c0,.38-.24.63-.6.63ZM951.2,252.35v.76c0,.35.21.57.54.57s.54-.22.54-.57v-.76h-.02v.75c0,.34-.2.56-.52.56s-.52-.21-.52-.56v-.75h-.02Z"/>
      </g>
    </g>
    <g>
      <path class="cls-5" d="M900.09,244.41c.33,0,.59.08.78.25.2.17.29.39.29.68h1.14c0-.44-.21-.82-.63-1.12-.43-.31-.96-.46-1.59-.46s-1.16.15-1.59.46c-.42.3-.63.68-.63,1.12,0,.36.32.73.97,1.11.38.22.78.41,1.2.55.75.28,1.13.59,1.13.93,0,.28-.09.5-.27.66-.18.17-.45.26-.81.26s-.6-.07-.79-.21c-.2-.15-.29-.37-.29-.65h-1.14c0,.44.21.8.63,1.09.42.29.95.44,1.59.44s1.16-.15,1.59-.46c.42-.31.63-.68.63-1.12,0-.37-.33-.74-1-1.12-.38-.22-.78-.4-1.17-.54-.25-.07-.48-.19-.7-.34-.29-.19-.43-.39-.43-.58,0-.28.09-.5.27-.66.19-.18.46-.26.81-.26Z"/>
      <path class="cls-5" d="M908.26,247.42c-.15.42-.38.76-.68,1.01-.31.26-.68.39-1.09.39-.47,0-.87-.18-1.18-.54-.28-.32-.49-.77-.61-1.33h4.79c.07-.07.11-.18.11-.32,0-.79-.3-1.47-.91-2.04-.61-.56-1.34-.84-2.2-.84s-1.59.28-2.2.84c-.61.56-.91,1.24-.91,2.04s.3,1.47.91,2.04c.61.56,1.34.84,2.2.84.7,0,1.33-.2,1.88-.59.55-.38.91-.88,1.1-1.49h-1.23ZM905.32,244.98c.3-.36.69-.54,1.17-.54s.91.18,1.26.54c.34.35.55.79.62,1.33h-3.57c.07-.56.25-1,.52-1.33Z"/>
      <path class="cls-5" d="M922.57,246.63c0,.65-.12,1.17-.36,1.55-.27.43-.66.64-1.18.64s-.91-.21-1.18-.64c-.24-.38-.36-.9-.36-1.55v-2.88h-1.13v2.88c0,.83.23,1.51.69,2.04.49.56,1.14.84,1.98.84.6,0,1.11-.15,1.54-.45v.45h1.66v-.63h-.54v-4.49h.54v-.63h-1.66v2.88Z"/>
      <path class="cls-5" d="M926.91,243.76h-1.57v.64h.53v4.48h-.53v.63h1.57v-2.88c0-.61.18-1.13.54-1.55.36-.43.82-.64,1.36-.64l.09-.69c-.75,0-1.41.22-1.99.67v-.66Z"/>
      <path class="cls-5" d="M932.17,244.44c.84,0,1.43.46,1.76,1.39h1.23c-.19-.61-.55-1.1-1.1-1.49-.55-.39-1.18-.58-1.88-.58-.86,0-1.59.28-2.2.84-.61.56-.91,1.24-.91,2.03s.3,1.47.91,2.03c.61.56,1.34.84,2.2.84.7,0,1.33-.2,1.88-.59.55-.38.91-.88,1.1-1.49h-1.23c-.33.93-.92,1.39-1.76,1.39-.54,0-.97-.21-1.31-.64-.33-.41-.49-.93-.49-1.55s.16-1.14.49-1.55c.34-.43.78-.64,1.31-.64Z"/>
      <path class="cls-5" d="M939.6,243.75c-.66,0-1.23.18-1.72.53v-2.48h-1.58v.63h.53v6.45h-.53v.63h1.58v-2.88c0-.63.15-1.15.45-1.55.32-.43.74-.64,1.27-.64s.96.21,1.27.64c.3.41.45.93.45,1.55v2.88h1.12v-2.88c0-.81-.26-1.49-.78-2.04-.53-.56-1.22-.84-2.07-.84Z"/>
      <path class="cls-5" d="M944.54,241.83c-.15,0-.28.05-.39.15-.11.1-.16.22-.16.36s.05.27.16.36c.11.1.24.15.39.15s.29-.05.4-.15c.11-.1.16-.22.16-.36s-.05-.27-.16-.36c-.11-.1-.24-.15-.4-.15Z"/>
      <polygon class="cls-5" points="943.54 244.39 944.07 244.39 944.07 248.87 943.54 248.87 943.54 249.5 945.1 249.5 945.1 243.76 943.54 243.76 943.54 244.39"/>
      <path class="cls-5" d="M951.57,244.59c-.54-.56-1.23-.84-2.07-.84-.66,0-1.23.18-1.72.54v-.53h-1.57v.63h.54v4.49h-.54v.63h1.57v-2.88c0-.63.15-1.14.45-1.55.32-.43.74-.64,1.27-.64s.96.21,1.27.64c.3.41.45.92.45,1.55v2.88h1.12v-2.88c0-.81-.26-1.49-.78-2.04Z"/>
      <path class="cls-5" d="M918.43,248.98l-1.65-1.27v-3.31h.53v-.64h-1.57v.67c-.14-.11-.28-.2-.42-.28l1.16-2.05-1.62,1.85c-.33-.12-.69-.18-1.07-.18l-.34-1.74-.06,1.76c-.43.04-.83.17-1.19.36l-2.84-2.76,2.08,3.34c-.52.54-.79,1.17-.79,1.91,0,.55.15,1.05.44,1.48l-1.84,1.79,2.04-1.53c.08.1.17.19.27.29.6.56,1.33.84,2.18.84l.06,1.72.16-1.73c.66-.04,1.25-.25,1.78-.66v.67h1.57v-.63h-.53v-.65l1.65.75ZM915.16,248.18c-.32.36-.7.56-1.14.62l.11-1.16h-.46s.04,1.18.04,1.18c-.53-.01-.98-.22-1.36-.64-.11-.12-.2-.26-.28-.39l1.34-1-.43-.5-1.1,1.07c-.07-.22-.1-.46-.1-.72,0-.6.19-1.12.58-1.55.29-.32.63-.52,1.01-.6v.43s.65-.05.65-.05l-.08-.42c.48.04.89.25,1.24.63.38.43.58.94.58,1.55s-.19,1.12-.58,1.55Z"/>
    </g>
  </g>
  <g>
    <polygon class="cls-5" points="718.93 525.91 718.93 534.37 723.42 534.37 723.42 534.23 719.07 534.23 719.07 526.05 752.65 526.05 752.65 534.23 748.3 534.23 748.3 534.37 752.78 534.37 752.78 525.91 718.93 525.91"/>
    <path class="cls-5" d="M725.47,533.59c-.37,0-.64.27-.64.64s.27.64.64.64.64-.27.64-.64-.27-.64-.64-.64ZM725.47,534.76c-.31,0-.54-.23-.54-.54s.23-.54.54-.54.54.23.54.54-.23.54-.54.54Z"/>
    <path class="cls-5" d="M727.21,534.43c0,.21-.12.34-.31.34s-.31-.13-.31-.34v-.55h-.09v.56c0,.26.16.43.41.43s.41-.17.41-.43v-.56h-.09v.55Z"/>
    <path class="cls-5" d="M727.84,534.03v-.16h-.09v.96h.09v-.54c0-.2.12-.33.3-.33h.1v-.09h-.1c-.13,0-.24.06-.31.16Z"/>
    <path class="cls-5" d="M729.58,533.86c-.28,0-.48.21-.48.5s.21.5.48.5c.2,0,.35-.1.44-.29v-.03s-.09,0-.09,0h0c-.07.15-.2.23-.35.23-.21,0-.37-.15-.39-.37h.86v-.02s0-.02,0-.02c0-.28-.2-.49-.47-.49ZM729.19,534.3c.02-.21.18-.35.39-.35s.36.14.38.35h-.77Z"/>
    <path class="cls-5" d="M731.46,533.86c-.15,0-.27.07-.33.2-.05-.13-.16-.2-.3-.2-.13,0-.24.06-.31.16v-.14h-.09v.96h.09v-.56c0-.2.12-.33.29-.33.15,0,.24.11.24.3v.59h.09v-.56c0-.2.12-.33.29-.33.15,0,.24.12.24.3v.59h.09v-.6c0-.23-.13-.38-.33-.38Z"/>
    <path class="cls-5" d="M732.74,533.86c-.17,0-.32.08-.4.21v-.19h-.09v1.29h.09v-.51c.09.13.23.2.4.2.28,0,.49-.21.49-.5s-.21-.5-.49-.5ZM732.73,534.77c-.23,0-.4-.17-.4-.41s.17-.41.4-.41.4.17.4.41-.17.41-.4.41Z"/>
    <path class="cls-5" d="M733.75,534.54v-.57h.34v-.09h-.34v-.27h-.09v.27h-.21v.09h.21v.57c0,.19.11.3.3.3h.14v-.09h-.14c-.13,0-.21-.07-.21-.21Z"/>
    <rect class="cls-5" x="734.41" y="533.58" width=".12" height=".14"/>
    <rect class="cls-5" x="734.42" y="533.88" width=".1" height=".96"/>
    <path class="cls-5" d="M735.42,533.86c-.14,0-.27.07-.35.18v-.16h-.09v.96h.09v-.56c0-.18.15-.33.33-.33s.3.12.3.33v.56h.09v-.57c0-.25-.15-.42-.38-.42Z"/>
    <path class="cls-5" d="M736.65,533.86c-.28,0-.48.21-.48.5s.21.5.48.5c.2,0,.35-.1.44-.29v-.03s-.09,0-.09,0h0c-.07.15-.2.23-.35.23-.21,0-.37-.15-.39-.37h.86v-.03s0-.01,0-.02c0-.28-.2-.49-.47-.49ZM736.27,534.3c.02-.21.18-.35.39-.35s.36.14.38.35h-.76Z"/>
    <path class="cls-5" d="M737.8,534.29c-.17-.03-.27-.05-.27-.17,0-.11.1-.17.25-.17s.25.07.26.19v.02h.09v-.02c-.01-.17-.14-.28-.35-.28s-.35.11-.35.27c0,.2.18.23.34.26.17.03.29.06.29.19,0,.12-.11.19-.27.19s-.27-.07-.28-.2v-.02h-.1v.02c.02.18.16.29.37.29s.37-.11.37-.28c0-.22-.21-.26-.36-.28Z"/>
    <path class="cls-5" d="M738.84,534.29c-.17-.03-.27-.05-.27-.17,0-.11.1-.17.25-.17s.25.07.26.19v.02h.09v-.02c-.01-.17-.14-.28-.35-.28s-.35.11-.35.27c0,.2.18.23.34.26.17.03.29.06.29.19,0,.12-.11.19-.27.19s-.27-.07-.28-.2v-.02h-.1v.02c.02.18.16.29.37.29s.37-.11.37-.28c0-.22-.21-.26-.36-.28Z"/>
    <path class="cls-5" d="M740.36,533.83c0-.18.05-.23.23-.23h.1v-.09h-.1c-.23,0-.32.09-.32.32v.05h-.2v.09h.2v.87h.09v-.87h.33v-.09h-.33v-.05Z"/>
    <path class="cls-5" d="M741.39,533.86c-.29,0-.5.22-.5.5s.22.5.5.5.5-.22.5-.5-.22-.5-.5-.5ZM741.39,534.77c-.23,0-.41-.17-.41-.41s.17-.41.41-.41.41.17.41.41-.17.41-.41.41Z"/>
    <path class="cls-5" d="M742.36,534.03v-.16h-.09v.96h.09v-.54c0-.2.12-.33.3-.33h.1v-.09h-.1c-.13,0-.24.06-.31.16Z"/>
    <path class="cls-5" d="M744.01,534.66l-.39-.79h-.11l.44.89-.05.11c-.08.17-.14.2-.25.2h-.09v.09h.09c.16,0,.25-.06.33-.26l.47-1.01v-.03s-.09,0-.09,0l-.37.79Z"/>
    <path class="cls-5" d="M745.2,533.86c-.29,0-.5.22-.5.5s.22.5.5.5.5-.22.5-.5-.22-.5-.5-.5ZM745.2,534.77c-.23,0-.41-.17-.41-.41s.17-.41.41-.41.41.17.41.41-.17.41-.41.41Z"/>
    <path class="cls-5" d="M746.79,534.43c0,.21-.12.34-.31.34s-.31-.13-.31-.34v-.55h-.1v.56c0,.26.16.43.41.43s.41-.17.41-.43v-.56h-.09v.55Z"/>
    <g>
      <path class="cls-5" d="M723.93,530.84c0-.19-.17-.39-.52-.58-.2-.12-.41-.21-.61-.28-.13-.04-.25-.1-.37-.18-.15-.1-.22-.2-.22-.3,0-.15.05-.26.14-.35.1-.09.24-.14.43-.14.17,0,.31.04.41.13.1.09.15.21.15.35h.6c0-.23-.11-.43-.33-.59-.23-.16-.5-.24-.83-.24s-.61.08-.83.24c-.22.16-.33.36-.33.59,0,.19.17.38.51.58.2.12.41.21.63.29.39.15.59.31.59.48,0,.15-.05.26-.14.35-.1.09-.24.14-.42.14s-.31-.04-.41-.11c-.1-.08-.15-.19-.15-.34h-.6c0,.23.11.42.33.57.22.15.5.23.83.23s.61-.08.83-.24c.22-.16.33-.36.33-.59Z"/>
      <path class="cls-5" d="M726.12,531.67c.37,0,.7-.1.99-.31.29-.2.48-.46.58-.78h-.64c-.08.22-.2.4-.35.53-.16.14-.35.2-.57.2-.25,0-.45-.09-.62-.28-.15-.17-.25-.4-.32-.7h2.51s.06-.09.06-.17c0-.42-.16-.77-.48-1.06-.32-.29-.7-.44-1.15-.44s-.83.15-1.15.44c-.32.29-.48.65-.48,1.06s.16.77.48,1.06c.32.29.7.44,1.15.44ZM725.5,529.3c.16-.19.36-.28.61-.28s.48.09.66.28c.18.18.29.42.32.7h-1.87c.04-.29.13-.52.27-.7Z"/>
      <path class="cls-5" d="M733.73,531.67c.31,0,.58-.08.81-.24v.24h.87v-.33h-.28v-2.35h.28v-.33h-.87v1.51c0,.34-.06.61-.19.81-.14.22-.35.34-.62.34s-.48-.11-.62-.34c-.12-.2-.19-.47-.19-.81v-1.51h-.59v1.51c0,.43.12.79.36,1.06.25.29.6.44,1.03.44Z"/>
      <path class="cls-5" d="M736.8,530.16c0-.32.09-.59.28-.81.19-.22.43-.34.71-.34l.05-.36c-.39,0-.74.12-1.04.35v-.34h-.82v.33h.28v2.34h-.28v.33h.82v-1.51Z"/>
      <path class="cls-5" d="M739.56,531.67c.37,0,.7-.1.99-.31.29-.2.48-.46.58-.78h-.64c-.17.49-.48.73-.92.73-.28,0-.51-.11-.69-.34-.17-.22-.26-.49-.26-.81s.09-.59.26-.81c.18-.22.41-.34.69-.34.44,0,.75.24.92.73h.64c-.1-.32-.29-.58-.58-.78-.29-.2-.62-.31-.99-.31-.45,0-.83.15-1.15.44-.32.29-.48.65-.48,1.06s.16.77.48,1.06c.32.29.7.44,1.15.44Z"/>
      <path class="cls-5" d="M742.55,530.16c0-.33.08-.6.23-.81.17-.22.39-.34.66-.34s.5.11.67.34c.16.21.24.49.24.81v1.51h.58v-1.51c0-.42-.14-.78-.41-1.06-.28-.29-.64-.44-1.08-.44-.34,0-.64.09-.9.28v-1.3h-.83v.33h.28v3.38h-.28v.33h.83v-1.51Z"/>
      <path class="cls-5" d="M746.03,528.19c.08,0,.15-.03.21-.08.06-.05.08-.12.08-.19s-.03-.14-.08-.19c-.06-.05-.13-.08-.21-.08s-.15.03-.21.08c-.06.05-.09.12-.09.19s.03.14.09.19c.06.05.13.08.21.08Z"/>
      <polygon class="cls-5" points="746.32 528.67 745.5 528.67 745.5 528.99 745.78 528.99 745.78 531.34 745.5 531.34 745.5 531.67 746.32 531.67 746.32 528.67"/>
      <path class="cls-5" d="M747.72,530.16c0-.33.08-.6.23-.81.17-.22.39-.34.67-.34s.5.11.67.34c.16.21.23.48.23.81v1.51h.59v-1.51c0-.43-.14-.78-.41-1.06-.28-.29-.64-.44-1.08-.44-.34,0-.64.09-.9.28v-.28h-.82v.33h.28v2.35h-.28v.33h.82v-1.51Z"/>
      <path class="cls-5" d="M730.96,531.32v.35h.82v-.33h-.28v-.34l.86.39-.86-.66v-1.73h.28v-.33h-.82v.35c-.07-.06-.15-.1-.22-.15l.61-1.07-.85.97c-.18-.06-.36-.09-.56-.1l-.18-.91-.03.92c-.23.02-.43.09-.62.19l-1.48-1.44,1.09,1.75c-.27.28-.41.61-.41,1,0,.29.08.55.23.78l-.96.94,1.07-.8c.04.05.09.1.14.15.31.29.69.44,1.14.44l.03.9.08-.91c.35-.02.66-.13.93-.34ZM729.88,530.69l.02.62c-.28,0-.51-.12-.71-.33-.06-.06-.11-.13-.15-.21l.7-.53-.23-.26-.57.56c-.04-.12-.05-.24-.05-.37,0-.32.1-.59.3-.81.15-.17.33-.27.53-.31v.23s.34-.03.34-.03l-.04-.22c.25.02.46.13.65.33.2.22.3.49.3.81s-.1.59-.3.81c-.17.19-.37.29-.59.32l.06-.61h-.24Z"/>
    </g>
  </g>
  <g>
    <polygon class="cls-5" points="128.89 536.88 128.89 545.33 133.38 545.33 133.38 545.2 129.03 545.2 129.03 537.01 162.61 537.01 162.61 545.2 158.26 545.2 158.26 545.33 162.74 545.33 162.74 536.88 128.89 536.88"/>
    <path class="cls-5" d="M135.43,544.55c-.37,0-.64.27-.64.64s.27.64.64.64.64-.27.64-.64-.27-.64-.64-.64ZM135.43,545.73c-.31,0-.54-.23-.54-.54s.23-.54.54-.54.54.23.54.54-.23.54-.54.54Z"/>
    <path class="cls-5" d="M137.16,545.39c0,.21-.12.34-.31.34s-.31-.13-.31-.34v-.55h-.09v.56c0,.26.16.43.41.43s.41-.17.41-.43v-.56h-.09v.55Z"/>
    <path class="cls-5" d="M137.8,545v-.16h-.09v.96h.09v-.54c0-.2.12-.33.3-.33h.1v-.09h-.1c-.13,0-.24.06-.31.16Z"/>
    <path class="cls-5" d="M139.54,544.82c-.28,0-.48.21-.48.5s.21.5.48.5c.2,0,.35-.1.44-.29v-.03s-.09,0-.09,0h0c-.07.15-.2.23-.35.23-.21,0-.37-.15-.39-.37h.86v-.02s0-.02,0-.02c0-.28-.2-.49-.47-.49ZM139.15,545.27c.02-.21.18-.35.39-.35s.36.14.38.35h-.77Z"/>
    <path class="cls-5" d="M141.42,544.82c-.15,0-.27.07-.33.2-.05-.13-.16-.2-.3-.2-.13,0-.24.06-.31.16v-.14h-.09v.96h.09v-.56c0-.2.12-.33.29-.33.15,0,.24.11.24.3v.59h.09v-.56c0-.2.12-.33.29-.33.15,0,.24.12.24.3v.59h.09v-.6c0-.23-.13-.38-.33-.38Z"/>
    <path class="cls-5" d="M142.7,544.82c-.17,0-.32.08-.4.21v-.19h-.09v1.29h.09v-.51c.09.13.23.2.4.2.28,0,.49-.21.49-.5s-.21-.5-.49-.5ZM142.69,545.73c-.23,0-.4-.17-.4-.41s.17-.41.4-.41.4.17.4.41-.17.41-.4.41Z"/>
    <path class="cls-5" d="M143.71,545.5v-.57h.34v-.09h-.34v-.27h-.09v.27h-.21v.09h.21v.57c0,.19.11.3.3.3h.14v-.09h-.14c-.13,0-.21-.07-.21-.21Z"/>
    <rect class="cls-5" x="144.36" y="544.54" width=".12" height=".14"/>
    <rect class="cls-5" x="144.38" y="544.84" width=".1" height=".96"/>
    <path class="cls-5" d="M145.38,544.82c-.14,0-.27.07-.35.18v-.16h-.09v.96h.09v-.56c0-.18.15-.33.33-.33s.3.12.3.33v.56h.09v-.57c0-.25-.15-.42-.38-.42Z"/>
    <path class="cls-5" d="M146.61,544.82c-.28,0-.48.21-.48.5s.21.5.48.5c.2,0,.35-.1.44-.29v-.03s-.09,0-.09,0h0c-.07.15-.2.23-.35.23-.21,0-.37-.15-.39-.37h.86v-.03s0-.01,0-.02c0-.28-.2-.49-.47-.49ZM146.23,545.27c.02-.21.18-.35.39-.35s.36.14.38.35h-.76Z"/>
    <path class="cls-5" d="M147.76,545.26c-.17-.03-.27-.05-.27-.17,0-.11.1-.17.25-.17s.25.07.26.19v.02h.09v-.02c-.01-.17-.14-.28-.35-.28s-.35.11-.35.27c0,.2.18.23.34.26.17.03.29.06.29.19,0,.12-.11.19-.27.19s-.27-.07-.28-.2v-.02h-.1v.02c.02.18.16.29.37.29s.37-.11.37-.28c0-.22-.21-.26-.36-.28Z"/>
    <path class="cls-5" d="M148.8,545.26c-.17-.03-.27-.05-.27-.17,0-.11.1-.17.25-.17s.25.07.26.19v.02h.09v-.02c-.01-.17-.14-.28-.35-.28s-.35.11-.35.27c0,.2.18.23.34.26.17.03.29.06.29.19,0,.12-.11.19-.27.19s-.27-.07-.28-.2v-.02h-.1v.02c.02.18.16.29.37.29s.37-.11.37-.28c0-.22-.21-.26-.36-.28Z"/>
    <path class="cls-5" d="M150.32,544.79c0-.18.05-.23.23-.23h.1v-.09h-.1c-.23,0-.32.09-.32.32v.05h-.2v.09h.2v.87h.09v-.87h.33v-.09h-.33v-.05Z"/>
    <path class="cls-5" d="M151.35,544.82c-.29,0-.5.22-.5.5s.22.5.5.5.5-.22.5-.5-.22-.5-.5-.5ZM151.35,545.73c-.23,0-.41-.17-.41-.41s.17-.41.41-.41.41.17.41.41-.17.41-.41.41Z"/>
    <path class="cls-5" d="M152.32,545v-.16h-.09v.96h.09v-.54c0-.2.12-.33.3-.33h.1v-.09h-.1c-.13,0-.24.06-.31.16Z"/>
    <path class="cls-5" d="M153.96,545.63l-.39-.79h-.11l.44.89-.05.11c-.08.17-.14.2-.25.2h-.09v.09h.09c.16,0,.25-.06.33-.26l.47-1.01v-.03s-.09,0-.09,0l-.37.79Z"/>
    <path class="cls-5" d="M155.16,544.82c-.29,0-.5.22-.5.5s.22.5.5.5.5-.22.5-.5-.22-.5-.5-.5ZM155.16,545.73c-.23,0-.41-.17-.41-.41s.17-.41.41-.41.41.17.41.41-.17.41-.41.41Z"/>
    <path class="cls-5" d="M156.75,545.39c0,.21-.12.34-.31.34s-.31-.13-.31-.34v-.55h-.1v.56c0,.26.16.43.41.43s.41-.17.41-.43v-.56h-.09v.55Z"/>
    <g>
      <path class="cls-5" d="M133.89,541.8c0-.19-.17-.39-.52-.58-.2-.12-.41-.21-.61-.28-.13-.04-.25-.1-.37-.18-.15-.1-.22-.2-.22-.3,0-.15.05-.26.14-.35.1-.09.24-.14.43-.14.17,0,.31.04.41.13.1.09.15.21.15.35h.6c0-.23-.11-.43-.33-.59-.23-.16-.5-.24-.83-.24s-.61.08-.83.24c-.22.16-.33.36-.33.59,0,.19.17.38.51.58.2.12.41.21.63.29.39.15.59.31.59.48,0,.15-.05.26-.14.35-.1.09-.24.14-.42.14s-.31-.04-.41-.11c-.1-.08-.15-.19-.15-.34h-.6c0,.23.11.42.33.57.22.15.5.23.83.23s.61-.08.83-.24c.22-.16.33-.36.33-.59Z"/>
      <path class="cls-5" d="M136.08,542.63c.37,0,.7-.1.99-.31.29-.2.48-.46.58-.78h-.64c-.08.22-.2.4-.35.53-.16.14-.35.2-.57.2-.25,0-.45-.09-.62-.28-.15-.17-.25-.4-.32-.7h2.51s.06-.09.06-.17c0-.42-.16-.77-.48-1.06-.32-.29-.7-.44-1.15-.44s-.83.15-1.15.44c-.32.29-.48.65-.48,1.06s.16.77.48,1.06c.32.29.7.44,1.15.44ZM135.46,540.27c.16-.19.36-.28.61-.28s.48.09.66.28c.18.18.29.42.32.7h-1.87c.04-.29.13-.52.27-.7Z"/>
      <path class="cls-5" d="M143.68,542.63c.31,0,.58-.08.81-.24v.24h.87v-.33h-.28v-2.35h.28v-.33h-.87v1.51c0,.34-.06.61-.19.81-.14.22-.35.34-.62.34s-.48-.11-.62-.34c-.12-.2-.19-.47-.19-.81v-1.51h-.59v1.51c0,.43.12.79.36,1.06.25.29.6.44,1.03.44Z"/>
      <path class="cls-5" d="M146.76,541.13c0-.32.09-.59.28-.81.19-.22.43-.34.71-.34l.05-.36c-.39,0-.74.12-1.04.35v-.34h-.82v.33h.28v2.34h-.28v.33h.82v-1.51Z"/>
      <path class="cls-5" d="M149.52,542.63c.37,0,.7-.1.99-.31.29-.2.48-.46.58-.78h-.64c-.17.49-.48.73-.92.73-.28,0-.51-.11-.69-.34-.17-.22-.26-.49-.26-.81s.09-.59.26-.81c.18-.22.41-.34.69-.34.44,0,.75.24.92.73h.64c-.1-.32-.29-.58-.58-.78-.29-.2-.62-.31-.99-.31-.45,0-.83.15-1.15.44-.32.29-.48.65-.48,1.06s.16.77.48,1.06c.32.29.7.44,1.15.44Z"/>
      <path class="cls-5" d="M152.51,541.13c0-.33.08-.6.23-.81.17-.22.39-.34.66-.34s.5.11.67.34c.16.21.24.49.24.81v1.51h.58v-1.51c0-.42-.14-.78-.41-1.06-.28-.29-.64-.44-1.08-.44-.34,0-.64.09-.9.28v-1.3h-.83v.33h.28v3.38h-.28v.33h.83v-1.51Z"/>
      <path class="cls-5" d="M155.99,539.16c.08,0,.15-.03.21-.08.06-.05.08-.12.08-.19s-.03-.14-.08-.19c-.06-.05-.13-.08-.21-.08s-.15.03-.21.08c-.06.05-.09.12-.09.19s.03.14.09.19c.06.05.13.08.21.08Z"/>
      <polygon class="cls-5" points="156.28 539.63 155.46 539.63 155.46 539.96 155.74 539.96 155.74 542.31 155.46 542.31 155.46 542.63 156.28 542.63 156.28 539.63"/>
      <path class="cls-5" d="M157.68,541.13c0-.33.08-.6.23-.81.17-.22.39-.34.67-.34s.5.11.67.34c.16.21.23.48.23.81v1.51h.59v-1.51c0-.43-.14-.78-.41-1.06-.28-.29-.64-.44-1.08-.44-.34,0-.64.09-.9.28v-.28h-.82v.33h.28v2.35h-.28v.33h.82v-1.51Z"/>
      <path class="cls-5" d="M140.92,542.29v.35h.82v-.33h-.28v-.34l.86.39-.86-.66v-1.73h.28v-.33h-.82v.35c-.07-.06-.15-.1-.22-.15l.61-1.07-.85.97c-.18-.06-.36-.09-.56-.1l-.18-.91-.03.92c-.23.02-.43.09-.62.19l-1.48-1.44,1.09,1.75c-.27.28-.41.61-.41,1,0,.29.08.55.23.78l-.96.94,1.07-.8c.04.05.09.1.14.15.31.29.69.44,1.14.44l.03.9.08-.91c.35-.02.66-.13.93-.34ZM139.84,541.66l.02.62c-.28,0-.51-.12-.71-.33-.06-.06-.11-.13-.15-.21l.7-.53-.23-.26-.57.56c-.04-.12-.05-.24-.05-.37,0-.32.1-.59.3-.81.15-.17.33-.27.53-.31v.23s.34-.03.34-.03l-.04-.22c.25.02.46.13.65.33.2.22.3.49.3.81s-.1.59-.3.81c-.17.19-.37.29-.59.32l.06-.61h-.24Z"/>
    </g>
  </g>
</svg>